<?xml version="1.0" encoding="utf-8"?>
<svg width="251px" height="166px" viewBox="0 0 251 166" version="1.1" xmlns:xlink="http://www.w3.org/1999/xlink" xmlns="http://www.w3.org/2000/svg">
  <g id="undraw_Booking_re_gw4j-(1)">
    <path d="M43.6212 20.6968C41.8149 22.6693 39.5749 24.1377 37.1442 25.2779L37.1412 25.2779C36.9125 25.3863 36.6837 25.4919 36.4521 25.5915L36.4492 25.5915L36.4462 25.5944L36.4434 25.5915L36.4405 25.5915C36.4405 25.5923 36.4402 25.5931 36.4396 25.5936C36.4391 25.5942 36.4383 25.5945 36.4375 25.5944L36.4345 25.5944L36.4316 25.5915C36.4287 25.5944 36.4287 25.5944 36.4257 25.5915L36.4229 25.5944L36.4199 25.5915L36.417 25.5915C36.414 25.5944 36.414 25.5944 36.4111 25.5915L36.4081 25.5915C34.7812 26.295 33.1103 26.8922 31.4059 27.3794C21.3838 30.2216 10.8502 30.7715 0.586424 28.9885C0.389993 28.9533 0.196429 28.9182 0 28.883L0 5.10986C0.193564 5.0278 0.389993 4.94573 0.586424 4.86659C1.86779 4.33609 3.16477 3.84857 4.47735 3.40404C6.36562 2.75922 8.28028 2.20625 10.2213 1.74511C16.5541 0.21297 23.0883 -0.315181 29.5851 0.179966C30.7668 0.267895 31.9455 0.394904 33.1212 0.560993C35.5813 0.903931 38.1615 1.50184 40.4311 2.5394L40.4339 2.5394C40.7654 2.69474 41.0908 2.85594 41.4133 3.02889C43.4306 4.12214 45.1312 5.62573 46.1692 7.6862C46.5421 8.4262 46.8105 9.21433 46.9668 10.0281L46.9668 10.0339C47.0253 10.3153 47.0664 10.5996 47.0986 10.881C47.4682 14.3512 46.0284 18.0648 43.6212 20.6968Z" transform="translate(196.74539 90.126465)" id="Path" fill="#DFFFF2" fill-rule="evenodd" stroke="none" />
    <path d="M47.0986 0.8532C47.0699 0.860367 47.0404 0.8643 47.0107 0.864924C41.988 1.08475 36.9721 1.41106 31.963 1.84387L31.9543 1.84387C31.9338 1.8468 31.9162 1.8468 31.8957 1.84973C26.7528 2.29524 21.6205 2.8531 16.4991 3.52332C16.2822 3.55263 16.068 3.58194 15.8539 3.60831C12.312 4.0802 8.77689 4.60387 5.24847 5.17932C3.69149 5.43431 2.13748 5.70005 0.586424 5.97654C0.389993 6.01171 0.196429 6.04395 0 6.08206L0 5.19397C0.196429 5.15587 0.392857 5.12363 0.586424 5.08846C5.75285 4.17399 10.9368 3.37579 16.1384 2.69385C17.4461 2.51799 18.7558 2.3519 20.0674 2.19559C23.8557 1.73835 27.6498 1.34365 31.4499 1.01147C31.7285 0.988025 32.0041 0.964577 32.2827 0.941129C37.147 0.527862 42.0182 0.214248 46.8963 0.000286765C46.92 -0.000792537 46.9436 0.00117768 46.9668 0.00614871C47.436 0.0471823 47.5356 0.750616 47.0986 0.8532Z" transform="translate(196.74539 100.15381)" id="Path" fill="#5BD3A0" fill-rule="evenodd" stroke="none" />
    <path d="M20.8987 11.3084C14.6416 11.3543 8.47719 8.70221 4.05132 4.31233C2.80255 3.06892 1.7021 1.68506 0.771986 0.188451C0.473664 -0.289799 -0.224225 0.237595 0.0715377 0.711744C3.50878 6.2221 9.23428 10.1474 15.5468 11.5907C17.3394 11.9968 19.1732 12.1929 21.0111 12.1752C21.5722 12.1711 21.456 11.3043 20.8987 11.3084L20.8987 11.3084Z" transform="translate(212.51471 103.5459)" id="Path" fill="#5BD3A0" fill-rule="evenodd" stroke="none" />
    <path d="M10.2213 0C10.1667 0.167678 10.0272 0.293776 9.85482 0.3312C8.42087 0.706786 7.03546 1.24776 5.72651 1.94324C3.81498 2.95241 2.07923 4.26384 0.586424 5.82678C0.507257 5.90591 0.431084 5.98505 0.35778 6.06712C0.234511 6.19608 0.117256 6.32797 0 6.4628L0 5.18489C0.187694 4.98559 0.384123 4.78921 0.586424 4.60163C1.76512 3.47353 3.07083 2.48602 4.47735 1.65893C6.36562 1.01412 8.28028 0.46114 10.2213 0Z" transform="translate(196.74539 91.87158)" id="Path" fill="#FFFFFF" stroke="none" />
    <path d="M9.54029 0.0379593C5.56006 1.74801 2.22968 4.6832 0.0338461 8.41631C-0.0586827 8.63861 0.044939 8.89395 0.266249 8.98898C0.488634 9.07682 0.740824 8.97455 0.839142 8.75667C2.93498 5.2308 6.09692 2.4614 9.86898 0.847843C10.3866 0.626801 10.0589 -0.183514 9.54031 0.0379681L9.54029 0.0379593Z" transform="translate(228.15472 92.396484)" id="Path" fill="#5BD3A0" fill-rule="evenodd" stroke="none" />
    <path d="M52.9483 14.6232C52.2679 17.2083 50.9632 19.5501 49.3418 21.6868L49.3388 21.6898C49.1892 21.8891 49.0339 22.0913 48.8727 22.2847L48.8727 22.2877C47.7469 23.674 46.5314 24.985 45.2339 26.2122C40.5698 30.6552 35.3015 34.4176 29.5851 37.388C20.5923 42.0835 10.541 44.8591 0.586424 45.0174C0.510257 45.0203 0.433954 45.0203 0.35778 45.0203C0.237517 45.0232 0.117256 45.0232 0 45.0232L0 31.702C0.190559 31.3385 0.386987 30.9751 0.586424 30.6146C3.17341 25.9615 6.32807 21.6474 9.97809 17.771C10.066 17.6743 10.1569 17.5776 10.2478 17.4838C11.62 16.0359 13.0586 14.6574 14.5638 13.3482C20.3543 8.25893 27.0462 4.29747 34.2941 1.66827C36.631 0.830015 39.1936 0.158822 41.686 0.0269283C42.0525 0.0064115 42.4161 -0.00238142 42.7826 0.000549558C45.0785 0.0327903 47.2805 0.57502 49.16 1.91741C49.833 2.40062 50.4368 2.97356 50.9545 3.6203C51.1362 3.84599 51.3034 4.07753 51.4646 4.31494L51.4646 4.31787C53.4057 7.21954 53.8573 11.1734 52.9483 14.6232Z" transform="translate(196.74539 52.91797)" id="Path" fill="#DFFFF2" fill-rule="evenodd" stroke="none" />
    <path d="M51.4646 0.727197L51.4646 0.730128C51.4429 0.749056 51.4193 0.765749 51.3943 0.779954C47.0547 3.30352 42.7698 5.91893 38.5398 8.62617C38.5339 8.6291 38.531 8.63203 38.5252 8.63496C38.5082 8.64677 38.4906 8.65754 38.4724 8.6672C34.124 11.4516 29.8372 14.3298 25.6121 17.3019C25.4361 17.425 25.2573 17.551 25.0785 17.677C22.161 19.7375 19.2738 21.8419 16.417 23.9903C11.0218 28.0527 5.74493 32.2654 0.586424 36.6287C0.389993 36.7928 0.196429 36.9599 0 37.127L0 35.9868C0.193564 35.8197 0.389993 35.6527 0.586424 35.4885C2.56274 33.8208 4.55658 32.1765 6.56792 30.5557C7.16909 30.0721 7.77299 29.5885 8.37702 29.1107C13.7429 24.8403 19.2289 20.7291 24.8351 16.7772L24.838 16.7772C25.9405 16.0005 27.045 15.2306 28.1512 14.4676C31.2945 12.3045 34.473 10.1933 37.6866 8.13377C37.9181 7.98429 38.1528 7.83481 38.3873 7.68533C42.5012 5.05918 46.6687 2.519 50.8899 0.0647968C50.9105 0.0522864 50.9321 0.0415026 50.9545 0.0325561C51.3943 -0.143302 51.8076 0.43703 51.4646 0.727197Z" transform="translate(196.74542 56.50586)" id="Path" fill="#5BD3A0" fill-rule="evenodd" stroke="none" />
    <path d="M23.5927 0.562712C18.073 3.50884 11.3816 4.02259 5.42225 2.19019C3.73857 1.66892 2.12097 0.954415 0.601815 0.0609642C0.115376 -0.224032 -0.257557 0.567067 0.224701 0.849619C5.82927 4.13333 12.7237 4.95089 18.9845 3.29788C20.7606 2.82506 22.4757 2.14726 24.0951 1.27815C24.5901 1.01396 24.0843 0.300305 23.5927 0.5627L23.5927 0.562712Z" transform="translate(221.81653 73.77637)" id="Path" fill="#5BD3A0" fill-rule="evenodd" stroke="none" />
    <path d="M0.311072 18.797C0.0378475 17.2626 -0.0558686 15.7017 0.0318141 14.1457C0.22933 10.5971 1.31634 7.15508 3.19285 4.13627C4.56668 2.68885 6.0057 1.3101 7.5099 0C7.53882 0.174325 7.47347 0.350952 7.33803 0.464509C6.24338 1.46311 5.26814 2.5851 4.43179 3.80804C1.44435 8.16643 0.278338 13.519 1.18237 18.7244C1.21211 18.8445 1.17727 18.9714 1.09038 19.0594C0.962783 19.1705 0.785795 19.2056 0.62543 19.1516C0.465066 19.0976 0.345402 18.9626 0.311072 18.797L0.311072 18.797Z" transform="translate(203.80017 66.26611)" id="Path" fill="#5BD3A0" fill-rule="evenodd" stroke="none" />
    <path d="M4.52509 0.157494C1.79502 3.52003 0.209749 7.66575 0 11.9913C0.0213612 12.2311 0.231781 12.4091 0.471928 12.3905C0.70968 12.365 0.885486 12.1573 0.871304 11.9187C1.08881 7.82318 2.60194 3.9025 5.19249 0.722072C5.54813 0.285987 4.88144 -0.279462 4.52509 0.157494L4.52509 0.157494Z" transform="translate(234.25745 52.339844)" id="Path" fill="#5BD3A0" fill-rule="evenodd" stroke="none" />
    <path d="M11.6728 16.5726L11.6728 16.5756C11.6523 16.8277 11.6288 17.0768 11.6024 17.3259L11.6024 17.3318C11.3985 19.1051 11.0802 20.8635 10.6494 22.5958C10.4443 23.4458 10.2213 24.2899 9.97809 25.134C9.94874 25.2425 9.91638 25.3509 9.88417 25.4564L9.88417 25.4594C9.16804 27.9144 8.31245 30.3266 7.32157 32.6842C5.49835 37.0249 3.24189 41.1707 0.586424 45.0588C0.395863 45.3431 0.199434 45.6274 0 45.9088L0 0.00971239C0.196429 -0.0020115 0.389993 -0.0020115 0.586424 0.00385044C0.6802 0.00385044 0.774027 0.00678142 0.867908 0.0126434C1.69524 0.0560999 2.51244 0.214937 3.29578 0.484545C3.57139 0.575405 3.83811 0.677989 4.10212 0.792297C7.30097 2.1933 9.81389 5.28255 10.9046 8.67955C11.7226 11.2236 11.8868 13.8996 11.6728 16.5726Z" transform="translate(196.74539 45.555176)" id="Path" fill="#DFFFF2" fill-rule="evenodd" stroke="none" />
    <path d="M4.10211 0.495732C4.09522 0.524468 4.08433 0.552093 4.06975 0.577799C2.8823 2.88449 1.72119 5.20289 0.586424 7.533C0.389993 7.93454 0.193564 8.33902 0 8.74056L0 6.7475C0.193565 6.34887 0.38904 5.95026 0.586424 5.55166C1.4632 3.77549 2.35457 2.00714 3.26055 0.246599C3.27052 0.226046 3.2823 0.206428 3.29577 0.18798C3.5655 -0.198909 4.23397 0.0648789 4.10211 0.495732Z" transform="translate(196.74539 45.851562)" id="Path" fill="#5BD3A0" fill-rule="evenodd" stroke="none" />
    <path d="M11.7666 0.571937C11.7139 0.665728 11.6611 0.759504 11.6024 0.85331C10.7414 2.35314 9.71671 3.75293 8.54711 5.02702C6.30073 7.46321 3.59549 9.43234 0.586424 10.8216C0.392857 10.9153 0.196429 11.0033 0 11.0853L0 10.1328C0.196429 10.0448 0.392857 9.95398 0.586424 9.86019C4.94216 7.7834 8.56024 4.42749 10.9574 0.240737C11.0274 0.119787 11.1464 0.0351351 11.2836 0.00870641C11.4209 -0.0177223 11.5629 0.016672 11.6728 0.102981C11.7475 0.152685 11.7994 0.23005 11.817 0.31802C11.8346 0.40599 11.8164 0.497342 11.7666 0.571937L11.7666 0.571937Z" transform="translate(196.74539 62.027832)" id="Path" fill="#5BD3A0" fill-rule="evenodd" stroke="none" />
    <path d="M197.332 9.67221L197.332 31.9476L196.745 31.9476L196.745 31.7102L0.586424 31.7102L0.586424 31.9476L0 31.9476L0 9.67221C0.00524336 4.33257 4.33427 0.00524131 9.676 0L187.656 0C192.998 0.00524131 197.327 4.33257 197.332 9.67221L197.332 9.67221Z" id="Path" fill="#8870FF" fill-rule="evenodd" stroke="none" />
    <path d="M187.656 0L9.676 0C4.33427 0.00524131 0.00524336 4.33257 0 9.67221L0 136.876C0.00524336 142.216 4.33427 146.543 9.676 146.549L187.656 146.549C192.998 146.543 197.327 142.216 197.332 136.876L197.332 9.67221C197.327 4.33257 192.998 0.00524131 187.656 1.66607e-14L187.656 0ZM196.745 136.876C196.739 141.892 192.673 145.956 187.656 145.962L9.676 145.962C4.65862 145.956 0.592826 141.892 0.586424 136.876L0.586424 9.67221C0.592826 4.6568 4.65862 0.592594 9.676 0.586195L187.656 0.586195C192.673 0.592596 196.739 4.6568 196.745 9.67221L196.745 136.876Z" id="Shape" fill="#3F3D56" stroke="none" />
    <path d="M5.86424 11.7239C9.10298 11.7239 11.7285 9.09941 11.7285 5.86195C11.7285 2.62448 9.10298 0 5.86424 0C2.62551 0 0 2.62448 0 5.86195C0 9.09941 2.62551 11.7239 5.86424 11.7239Z" transform="translate(34.012634 10.111816)" id="Oval" fill="#FFFFFF" stroke="none" />
    <path d="M5.86424 11.7239C9.10298 11.7239 11.7285 9.09941 11.7285 5.86195C11.7285 2.62448 9.10298 0 5.86424 0C2.62551 0 0 2.62448 0 5.86195C0 9.09941 2.62551 11.7239 5.86424 11.7239Z" transform="translate(151.5907 10.111816)" id="Oval" fill="#FFFFFF" stroke="none" />
    <path d="M40.4597 27.626L5.57439 27.626C2.49718 27.6226 0.0034838 25.1298 0 22.0538L0 5.5722C0.0034838 2.4962 2.49718 0.00348081 5.57439 0L40.4597 0C43.5369 0.00348081 46.0306 2.4962 46.0341 5.5722L46.0341 22.0538C46.0306 25.1298 43.5369 27.6226 40.4597 27.626Z" transform="translate(16.360352 53.708984)" id="Path" fill="#ECE8FF" fill-rule="evenodd" stroke="none" />
    <path d="M40.4597 27.626L5.57439 27.626C2.49718 27.6226 0.00348379 25.1298 0 22.0538L0 5.5722C0.00348379 2.4962 2.49718 0.00348243 5.57439 0L40.4597 0C43.5369 0.00348243 46.0306 2.4962 46.0341 5.5722L46.0341 22.0538C46.0306 25.1298 43.5369 27.6226 40.4597 27.626L40.4597 27.626Z" transform="translate(75.706055 53.708984)" id="Path" fill="#ECE8FF" fill-rule="evenodd" stroke="none" />
    <path d="M40.6286 27.9639L5.74331 27.9639C2.57285 27.9604 0.00356786 25.3921 0 22.2229L0 5.74106C0.00356625 2.57184 2.57285 0.00356485 5.74331 0L40.6286 0C43.7991 0.0035697 46.3683 2.57184 46.3719 5.74106L46.3719 22.2229C46.3683 25.3921 43.7991 27.9603 40.6286 27.9639Z" transform="translate(75.53717 95.95557)" id="Path" fill="#EEEEEE" fill-opacity="0.50311863" fill-rule="evenodd" stroke="none" />
    <path d="M40.6286 27.9639L5.7433 27.9639C2.57284 27.9603 0.00356785 25.3921 0 22.2229L0 5.74106C0.00356624 2.57184 2.57284 0.00357131 5.7433 0L40.6286 0C43.799 0.00356485 46.3683 2.57184 46.3719 5.74106L46.3719 22.2229C46.3683 25.3921 43.799 27.9604 40.6286 27.9639L40.6286 27.9639Z" transform="translate(16.077026 95.95557)" id="Path" fill="#EEEEEE" fill-opacity="0.50311863" fill-rule="evenodd" stroke="none" />
    <path d="M40.6286 27.9639L5.74331 27.9639C2.57284 27.9604 0.00356625 25.3921 0 22.2229L0 5.74106C0.00356625 2.57184 2.57284 0.00356647 5.74331 0L40.6286 0C43.799 0.00356485 46.3683 2.57184 46.3719 5.74106L46.3719 22.2229C46.3683 25.3921 43.799 27.9604 40.6286 27.9639L40.6286 27.9639Z" transform="translate(134.88287 95.95557)" id="Path" fill="#EEEEEE" fill-opacity="0.50311863" fill-rule="evenodd" stroke="none" />
    <path d="M40.6286 27.9639L5.74331 27.9639C2.57284 27.9604 0.00356786 25.3921 0 22.2229L0 5.74106C0.00356625 2.57184 2.57284 0.00356647 5.74331 0L40.6286 0C43.799 0.00356647 46.3683 2.57184 46.3719 5.74106L46.3719 22.2229C46.3683 25.3921 43.799 27.9604 40.6286 27.9639Z" transform="translate(134.88287 53.404297)" id="Path" fill="#EEEEEE" fill-opacity="0.50311863" fill-rule="evenodd" stroke="none" />
    <path d="M9.45957 18.9117C14.6839 18.9117 18.9191 14.6782 18.9191 9.45586C18.9191 4.23353 14.6839 0 9.45957 0C4.23519 0 0 4.23353 0 9.45586C0 14.6782 4.23519 18.9117 9.45957 18.9117Z" transform="translate(29.917786 58.066406)" id="Oval" fill="#5BD3A0" fill-rule="evenodd" stroke="none" />
    <path d="M3.21168 7.19151C2.99885 7.19191 2.79167 7.12312 2.62138 6.99551L2.61082 6.98759L0.387762 5.2862C0.107271 5.07182 -0.0373907 4.72406 0.00833281 4.37408C0.0540563 4.0241 0.283209 3.72514 0.609371 3.58995C0.935533 3.45476 1.30908 3.5039 1.58915 3.71885L3.02908 4.82253L6.43187 0.386544C6.59125 0.178751 6.82668 0.0427622 7.08637 0.00849472C7.34606 -0.0257728 7.60873 0.0444886 7.8166 0.203821L7.79544 0.232545L7.81714 0.204246C8.24943 0.536358 8.3312 1.15558 7.99993 1.58845L3.99744 6.80624C3.80981 7.04994 3.51932 7.19237 3.21168 7.19151L3.21168 7.19151Z" transform="translate(35.228027 63.9375)" id="Path" fill="#FFFFFF" fill-rule="evenodd" stroke="none" />
    <path d="M9.45957 18.9117C14.6839 18.9117 18.9191 14.6782 18.9191 9.45586C18.9191 4.23353 14.6839 0 9.45957 0C4.23519 0 0 4.23353 0 9.45586C0 14.6782 4.23519 18.9117 9.45957 18.9117Z" transform="translate(89.432495 57.930176)" id="Oval" fill="#5BD3A0" fill-rule="evenodd" stroke="none" />
    <path d="M3.21094 7.19151C2.99811 7.19191 2.79092 7.12311 2.62063 6.9955L2.61008 6.98759L0.387013 5.2862C-0.0459696 4.95458 -0.128032 4.33488 0.203722 3.90207C0.535476 3.46925 1.15542 3.38722 1.5884 3.71885L3.02833 4.82253L6.43112 0.38654C6.5905 0.178749 6.82594 0.0427614 7.08563 0.00849449C7.34532 -0.0257724 7.60799 0.0444886 7.81585 0.20382L7.7947 0.232544L7.81639 0.204248C8.24868 0.536357 8.33046 1.15558 7.99919 1.58845L3.9967 6.80624C3.80906 7.04994 3.51858 7.19237 3.21094 7.19151L3.21094 7.19151Z" transform="translate(94.74341 63.801758)" id="Path" fill="#FFFFFF" fill-rule="evenodd" stroke="none" />
    <path d="M12.3438 32.9735C12.9729 32.2858 13.265 31.355 13.1415 30.4314C13.0179 29.5078 12.4915 28.6863 11.7038 28.188L6.42269 0L0 2.38072L7.21073 29.34C6.44417 30.7492 6.85317 32.5088 8.16275 33.4358C9.47234 34.3628 11.2686 34.1642 12.3438 32.9735L12.3438 32.9735Z" transform="translate(150.48053 79.03369)" id="Path" fill="#A0616A" stroke="none" />
    <path d="M6.65506 3.00919C6.67104 3.18422 6.67319 3.36024 6.66148 3.53561L19.1494 13.1432L22.6907 11.6896L25.5839 16.7452L19.5648 19.9276C18.566 20.4557 17.3384 20.2614 16.5516 19.4506L4.0693 6.58683C2.71644 6.89183 1.31593 6.3282 0.551865 5.17127C-0.212198 4.01434 -0.180374 2.50551 0.631791 1.3818C1.44396 0.258082 2.86699 -0.246034 4.20579 0.115689C5.54459 0.477412 6.51979 1.62949 6.65505 3.00919L6.65506 3.00919Z" transform="translate(104.920166 65.98584)" id="Path" fill="#A0616A" stroke="none" />
    <path d="M5.3048 10.929L1.71031 10.929L0 0L5.30568 0.000293097L5.3048 10.929L5.3048 10.929Z" transform="translate(135.44528 151.10938)" id="Path" fill="#A0616A" stroke="none" />
    <path d="M11.5908 4.65664L0 4.65621L0 4.50966C-1.39985e-05 3.31361 0.475301 2.16654 1.32138 1.32081C2.16745 0.475078 3.31498 -3.26493e-05 4.5115 0L4.51179 0L11.5911 0.000293097L11.5908 4.65664Z" transform="translate(130.07608 160.86523)" id="Path" fill="#2F2E41" stroke="none" />
    <path d="M5.3048 10.929L1.71031 10.929L0 0L5.30568 0.000293097L5.3048 10.929L5.3048 10.929Z" transform="translate(148.93304 151.10938)" id="Path" fill="#A0616A" stroke="none" />
    <path d="M11.5908 4.65664L0 4.65621L0 4.50966C-1.39985e-05 3.31361 0.475301 2.16654 1.32138 1.32081C2.16745 0.475078 3.31498 -3.26493e-05 4.5115 0L4.51179 0L11.5911 0.000293097L11.5908 4.65664Z" transform="translate(143.56384 160.86523)" id="Path" fill="#2F2E41" stroke="none" />
    <path d="M4.44464 45.0918C3.76452 45.0924 3.19586 44.5751 3.13256 43.8982L0 1.7832L0.148037 1.77119L21.7053 0L21.7111 0.153132L23.4248 43.7808C23.4382 44.139 23.3052 44.4871 23.0565 44.7452C22.8078 45.0033 22.4647 45.1491 22.1062 45.149L17.8794 45.149C17.227 45.1521 16.6714 44.6757 16.5753 44.0307L10.8353 8.7872C10.8237 8.71173 10.756 8.65784 10.6798 8.66338C10.6036 8.66892 10.5444 8.73202 10.5438 8.80838L10.2835 43.606C10.2779 44.3036 9.73033 44.8764 9.03345 44.9137L4.51544 45.0898C4.49174 45.0912 4.46805 45.0918 4.44464 45.0918Z" transform="translate(131.96442 114.78662)" id="Path" fill="#2F2E41" stroke="none" />
    <path d="M7.20159 14.3975C11.1789 14.3975 14.4032 11.1745 14.4032 7.19877C14.4032 3.223 11.1789 0 7.20159 0C3.22426 0 0 3.223 0 7.19877C0 11.1745 3.22426 14.3975 7.20159 14.3975Z" transform="translate(132.88696 48.948242)" id="Oval" fill="#A0616A" stroke="none" />
    <path d="M11.5573 52.6281C8.40962 52.6187 5.27718 52.1907 2.24242 51.3555C1.64041 51.1803 1.24418 50.6067 1.29364 49.9819C2.26314 35.4169 2.49108 24.1141 0.452401 16.2936C-0.41651 12.9605 -0.0220168 9.45002 1.53467 6.66245C3.87741 2.46735 8.18339 -0.0859465 12.7765 0.00221135L12.7765 0.00221135C12.996 0.00636161 13.2176 0.0141854 13.4415 0.0256826C20.412 0.384469 25.8436 6.68792 25.5495 14.0773L24.1474 49.2984C24.1369 49.8239 23.8113 50.2914 23.3219 50.4837C19.5608 51.898 15.5758 52.6244 11.5573 52.6281L11.5573 52.6281Z" transform="translate(129.92542 66.62793)" id="Path" fill="#8870FF" fill-rule="evenodd" stroke="none" />
    <path d="M5.7749 14.5186L0.380495 7.91083C0.0699234 7.53039 -0.0596083 7.03366 0.0256537 6.55008C0.110916 6.0665 0.402526 5.64397 0.824498 5.39258L8.13178 1.04007C10.1446 -0.583349 13.0921 -0.272304 14.7214 1.73547C16.3507 3.74324 16.0473 6.69038 14.043 8.32431L8.332 14.5887C8.00102 14.9515 7.52843 15.1524 7.03739 15.1389C6.54634 15.1254 6.08548 14.899 5.7749 14.5186L5.7749 14.5186Z" transform="translate(125.787994 71.10693)" id="Path" fill="#8870FF" fill-rule="evenodd" stroke="none" />
    <path d="M3.80061 15.8583C3.3522 15.6577 3.01347 15.2718 2.87286 14.8013L0.444475 6.68098C-0.653146 4.33977 0.351891 1.55221 2.69129 0.449232C5.0307 -0.65375 7.82183 0.343991 8.93103 2.67974L13.6272 9.76931C13.8984 10.1787 13.9778 10.6859 13.8449 11.1586C13.7119 11.6313 13.3797 12.0227 12.9348 12.2309L5.20742 15.8466C4.76255 16.055 4.24888 16.0593 3.80061 15.8583L3.80061 15.8583Z" transform="translate(144.73193 68.93848)" id="Path" fill="#8870FF" fill-rule="evenodd" stroke="none" />
    <path d="M13.6004 14.4424L8.26222 13.221C7.71158 13.0951 7.05004 12.8547 6.97368 12.2952C6.87105 11.5434 7.95344 11.0196 7.85361 10.2674C7.7569 9.53885 6.77091 9.44495 6.06784 9.22989C4.70658 8.7526 3.97029 7.28119 4.40463 5.9061C3.64393 6.97766 1.90601 7.06944 0.919353 6.20128C-0.0673059 5.33312 -0.256554 3.75798 0.335969 2.58511C0.985226 1.41664 2.15349 0.628169 3.48038 0.462941C4.79574 0.313843 6.12564 0.561677 7.2989 1.17454C7.37708 0.344085 8.41434 0.0074095 9.24876 0C12.8019 0.041392 15.9382 2.32962 17.0609 5.69966C18.0848 8.99763 17.3999 12.6128 14.5351 14.5424L13.6004 14.4424Z" transform="translate(130.04681 47.61133)" id="Path" fill="#2F2E41" stroke="none" />
    <path d="M112.007 0.586195L0.293212 0.586195C0.131276 0.586195 0 0.454971 0 0.293097C0 0.131224 0.131276 0 0.293212 0L112.007 0C112.169 0 112.3 0.131224 112.3 0.293097C112.3 0.454971 112.169 0.586195 112.007 0.586195Z" transform="translate(85.409 165.01367)" id="Path" fill="#3F3D56" stroke="none" />
  </g>
</svg>