<?xml version="1.0" encoding="utf-8"?>
<!-- Generator: Adobe Illustrator 25.4.1, SVG Export Plug-In . SVG Version: 6.00 Build 0)  -->
<svg version="1.1" id="Calque_1" xmlns="http://www.w3.org/2000/svg" xmlns:xlink="http://www.w3.org/1999/xlink" x="0px" y="0px"
	 viewBox="0 0 97.3 97.55" style="enable-background:new 0 0 97.3 97.55;" xml:space="preserve">
<style type="text/css">
	.st0{fill:#000100;}
</style>
<g id="shape-change">
	<path id="Path" class="st0" d="M59.79,46.18c-0.45,0.45-0.45,1.19,0,1.63c0.45,0.45,1.19,0.45,1.63,0c4.75-4.6,12.32-4.6,16.93,0
		c0.45,0.45,1.19,0.45,1.63,0c0.45-0.45,0.45-1.19,0-1.63C74.49,40.68,65.43,40.68,59.79,46.18z"/>
	<path id="Path_00000073681743958645563110000009280095752069448081_" class="st0" d="M62.61,49c-0.45,0.45-0.45,1.19,0,1.63
		c0.45,0.45,1.19,0.45,1.63,0c3.12-3.12,8.32-3.12,11.58,0c0.45,0.45,1.19,0.45,1.63,0c0.45-0.45,0.45-1.19,0-1.63
		C73.15,44.84,66.62,44.84,62.61,49z"/>
	<path id="Path_00000023254874824967012270000015899631604939763105_" class="st0" d="M65.13,51.52c-0.45,0.45-0.45,1.19,0,1.63
		c0.45,0.45,1.19,0.45,1.63,0c1.78-1.78,4.6-1.78,6.24,0c0.45,0.45,1.19,0.45,1.63,0c0.45-0.45,0.45-1.19,0-1.63
		C72.11,49,67.8,49,65.13,51.52z"/>
	<path id="Shape" class="st0" d="M48.65,19.3c1.19,0,2.23,0.89,2.23,1.93c0,0.89-0.89,1.93-2.23,1.93c-1.19,0-2.23-0.74-2.23-1.93
		C46.42,20.19,47.46,19.3,48.65,19.3 M48.65,17.08c-2.38,0-4.45,1.93-4.45,4.16c0,2.23,1.93,4.16,4.45,4.16
		c2.52,0,4.45-1.93,4.45-4.16C53.1,19.01,51.03,17.08,48.65,17.08L48.65,17.08z"/>
	<path id="Shape_00000101811479838157297290000011818674496677499811_" class="st0" d="M97.2,94.73l-4.01-13.96V25.98
		c0-2.08-1.78-3.71-3.86-3.71H58.3c0.3-3.71,0.59-7.13,0.74-8.61c0-0.15-0.15-0.59-0.3-0.89L49.54,0.45c-0.45-0.59-1.34-0.59-1.78,0
		l-9.21,12.18c-0.15,0.45-0.3,0.89-0.3,1.19S38.7,19.9,39,22.42H7.96c-2.08,0-3.86,1.63-3.86,3.71v54.79L0.09,94.88
		c-0.45,1.34,0.74,2.67,2.23,2.67h92.65C96.46,97.55,97.65,96.07,97.2,94.73z M13.01,73.8v-3.27c1.78-0.45,3.42-1.19,5.05-2.08
		l4.16,2.67c0.45,0.3,1.04,0.3,1.34-0.15l3.86-3.42c0.45-0.45,0.45-1.04,0.15-1.48l-2.82-3.56c1.34-1.78,2.23-3.86,2.67-5.94
		l4.9-0.74c0.59-0.15,0.89-0.59,0.89-1.04v-4.9c0-0.59-0.45-1.04-0.89-1.04l-4.9-0.74c-0.45-2.08-1.34-4.16-2.67-5.94l2.82-3.56
		c0.3-0.45,0.3-1.19-0.15-1.48l-3.86-3.56c-0.45-0.3-0.89-0.45-1.34-0.15l-4.16,2.67c-1.63-0.89-3.27-1.63-5.2-2.08v-3.27h26.58
		l-5.05,4.75c-0.45,0.45-0.45,1.19,0,1.63l3.56,3.27c0.45,0.45,1.04,0.45,1.48,0l2.08-1.93c0.3,1.04,0.45,2.08,0.74,2.97
		c0.15,0.45,0.59,0.89,1.04,0.89h1.93l0.15,2.67H43.3c-0.59,0-1.19,0.59-1.04,1.19c0.45,5.64,0,12.77-1.48,18.56
		c-3.27,0.15-6.09,2.08-7.13,4.9c-4.01-1.34-8.46,0.45-10.25,4.16H13.01z M22.37,42.62c1.48,1.93,2.38,4.16,2.97,6.53
		c0.15,0.45,0.45,0.74,0.89,0.89l4.75,0.74v2.97l-4.75,0.74c-0.45,0-0.89,0.45-0.89,0.89c-0.45,2.38-1.48,4.6-2.97,6.53
		c-0.3,0.45-0.3,1.04,0,1.34l2.67,3.42l-2.38,2.23l-4.01-2.67c-0.3-0.3-0.89-0.3-1.19,0c-1.34,0.89-2.82,1.48-4.45,2.08v-5.79
		c4.01-2.08,6.68-5.94,6.68-10.25c0-4.31-2.52-8.32-6.68-10.39v-5.79c1.63,0.45,3.12,1.19,4.6,2.08c0.3,0.3,0.89,0.3,1.19,0
		l4.01-2.52l2.38,2.23l-2.82,3.42C22.07,41.72,22.07,42.17,22.37,42.62z M13.01,44.55c2.67,1.78,4.45,4.6,4.45,7.72
		c0,3.12-1.63,5.94-4.45,7.72V44.55z M49.69,12.62V4.6l5.94,7.87h-5.94V12.62z M47.46,12.62h-5.94l5.94-7.87V12.62z M56.67,14.85
		c-0.74,9.8-1.19,15.74-3.56,25.09h-8.91c-2.52-9.5-2.82-15.44-3.56-25.09H56.67z M40.93,35.93l-2.23,2.08l-1.93-1.78l3.56-3.27
		C40.48,33.11,40.93,35.64,40.93,35.93z M47.46,42.17h2.38l-0.3,3.86l0,0l0,0l-0.3,3.56h-1.19L47.46,42.17z M56.96,32.96l3.56,3.27
		l-1.93,1.78l-2.38-2.08C56.52,35.19,56.82,33.85,56.96,32.96z M33.8,72.02c0.59,0.3,1.48,0,1.63-0.74
		c0.59-2.52,3.12-4.45,5.94-4.45h0.15c0.59,0,1.04-0.3,1.19-0.89c1.48-5.94,2.08-12.92,1.78-19.01h1.19l0.3,3.71
		c0,0.59,0.59,1.04,1.04,1.04h3.12c0.59,0,1.04-0.45,1.04-1.04l0.3-3.71h1.04c-0.3,5.94,0.3,13.07,1.78,19.01
		c0.15,0.59,0.59,0.89,1.19,0.89c3.42,0,5.64,2.08,6.09,4.45c0.15,0.74,0.89,1.04,1.63,0.74c2.82-1.48,6.24-0.59,7.87,1.78H25.93
		C27.56,71.42,30.98,70.53,33.8,72.02z M73.89,73.8c-1.78-3.71-6.24-5.49-10.25-4.16c-1.19-2.67-4.01-4.75-7.13-4.9
		c-1.34-5.94-1.93-12.92-1.48-18.56c0-0.59-0.45-1.19-1.04-1.19h-2.08l0.3-2.67h1.93c0.45,0,0.89-0.3,1.04-0.89
		c0.3-0.89,0.59-2.08,0.74-2.97L58,40.39c0.45,0.45,1.04,0.45,1.48,0l3.56-3.27c0.45-0.45,0.45-1.19,0-1.63l-5.2-4.75h26.43V73.8
		H73.89z M7.96,24.65h31.18c0.15,1.48,0.3,2.67,0.45,3.86H11.83c-0.59,0-1.19,0.45-1.19,1.19c0,17.22,0,27.62,0,45.29
		c0,0.59,0.45,1.19,1.19,1.19h73.5c0.59,0,1.19-0.45,1.19-1.19V29.55c0-0.59-0.45-1.19-1.19-1.19H57.71
		c0.15-1.04,0.3-2.38,0.45-3.86h31.18c0.89,0,1.63,0.59,1.63,1.48v53.75H6.33V25.98C6.33,25.24,7.07,24.65,7.96,24.65z M2.17,95.33
		l3.86-13.36h85.23l3.86,13.22C94.98,95.33,2.32,95.33,2.17,95.33z"/>
	<path id="Shape_00000047028118931567685220000002363973099354982302_" class="st0" d="M59.19,85.38c-0.15-0.45-0.59-0.59-1.04-0.59
		H39.15c-0.45,0-0.89,0.3-1.04,0.59l-2.52,5.49c-0.3,0.74,0.15,1.63,1.04,1.63h23.91c0.74,0,1.34-0.89,1.04-1.63L59.19,85.38z
		 M38.4,90.28l1.48-3.27h17.52l1.48,3.27H38.4z"/>
</g>
</svg>
