<?xml version="1.0" encoding="utf-8"?>
<svg width="66px" height="104px" viewBox="0 0 66 104" version="1.1" xmlns:xlink="http://www.w3.org/1999/xlink" xmlns="http://www.w3.org/2000/svg">
  <g id="Group" transform="translate(0 -9)">
    <path d="M69.9547 10.8508L1.07651 10.8508C0.482099 10.8508 0 10.3648 0 9.76526L0 1.0845C0 0.484974 0.482099 0.000434875 1.07651 0.000434875L69.9547 0C70.5494 0 71.0313 0.486063 71.0313 1.08406L71.0313 9.76482C71.0313 10.3648 70.5494 10.8508 69.9547 10.8508L69.9547 10.8508ZM2.15182 8.67989L68.8783 8.67989L68.8783 2.16986L2.15182 2.16986L2.15182 8.67989Z" transform="translate(9.36312 56.187122)" id="Shape" fill="#000000" fill-rule="evenodd" stroke="none" />
    <path d="M13.9906 34.7248L1.07522 34.7248C0.480585 34.7248 0 34.2389 0 33.6394L0 16.2777C0 16.1304 0.0298061 15.9848 0.0872612 15.8502L6.5442 0.657884C6.71461 0.258275 7.10362 0 7.53366 0C7.96371 0 8.3525 0.258275 8.52292 0.657884L14.9801 15.8502C15.0375 15.9848 15.0671 16.1309 15.0671 16.2777L15.0671 33.6381C15.0658 34.2389 14.5837 34.7247 13.9906 34.7247L13.9906 34.7248ZM2.15173 32.554L12.914 32.554L12.914 16.5L7.53213 3.84103L2.15042 16.5L2.15085 32.554L2.15171 32.554L2.15173 32.554Z" transform="translate(26.58334 23.632215)" id="Shape" fill="#000000" fill-rule="evenodd" stroke="none" />
    <path d="M33.8883 28.7418L20.9729 28.7418C20.3783 28.7418 19.8977 28.2559 19.8977 27.6577C19.8977 27.0597 20.3798 26.5723 20.9729 26.5723L33.8883 26.5719C34.4829 26.5719 34.9648 27.058 34.9648 27.6573C34.9648 28.2568 34.4814 28.7418 33.8883 28.7418L33.8883 28.7418Z" transform="translate(6.6856275 12.2534685)" id="Path" fill="#000000" fill-rule="evenodd" stroke="none" />
    <path d="M27.4319 37.4231C26.8373 37.4231 26.3554 36.9372 26.3554 36.3377L26.3554 18.976C26.3554 18.3764 26.8373 17.8906 27.4319 17.8906C28.0265 17.8906 28.5071 18.3764 28.5071 18.976L28.5071 36.3364C28.5084 36.9372 28.0265 37.4231 27.4319 37.4231L27.4319 37.4231Z" transform="translate(6.6835933 20.933907)" id="Path" fill="#000000" fill-rule="evenodd" stroke="none" />
    <path d="M16.1436 37.9787L1.07651 37.9787C0.481878 37.9787 0 37.4929 0 36.8933L0 1.08537C0 0.485842 0.481882 0 1.07651 0L16.1436 0C16.7383 0 17.2201 0.485846 17.2201 1.08537L17.2201 36.8933C17.2201 37.4929 16.7382 37.9787 16.1436 37.9787ZM2.15302 35.808L15.068 35.808L15.068 2.16984L2.15302 2.16984L2.15302 35.808Z" transform="translate(45.954544 20.37828)" id="Shape" fill="#000000" fill-rule="evenodd" stroke="none" />
    <path d="M31.1981 28.7414L23.6644 28.7414C23.07 28.7414 22.5879 28.2556 22.5879 27.6561C22.5879 27.0568 23.07 26.5722 23.6644 26.5722L31.1981 26.5722C31.7927 26.5722 32.2746 27.0581 32.2746 27.6561C32.2746 28.2543 31.7927 28.7414 31.1981 28.7414Z" transform="translate(30.900082 0.31760022)" id="Path" fill="#000000" fill-rule="evenodd" stroke="none" />
    <path d="M30.1222 28.7418L24.7403 28.7418C24.1459 28.7418 23.6638 28.2559 23.6638 27.6564C23.6638 27.0569 24.1459 26.5723 24.7403 26.5723L30.1222 26.5719C30.7168 26.5719 31.1987 27.0578 31.1987 27.656C31.1987 28.254 30.7168 28.7418 30.1222 28.7418L30.1222 28.7418Z" transform="translate(31.97595 5.7434916)" id="Path" fill="#000000" fill-rule="evenodd" stroke="none" />
    <path d="M31.1981 28.7418L23.6644 28.7418C23.07 28.7418 22.5879 28.2559 22.5879 27.6564C22.5879 27.0569 23.07 26.5723 23.6644 26.5723L31.1981 26.5719C31.7927 26.5719 32.2746 27.0578 32.2746 27.656C32.2746 28.254 31.7927 28.7418 31.1981 28.7418L31.1981 28.7418Z" transform="translate(30.900082 11.168104)" id="Path" fill="#000000" fill-rule="evenodd" stroke="none" />
    <path d="M30.1222 28.7416L24.7403 28.7416C24.1459 28.7416 23.6638 28.2557 23.6638 27.6562C23.6638 27.0567 24.1459 26.5721 24.7403 26.5721L30.1222 26.5721C30.7168 26.5721 31.1987 27.0582 31.1987 27.6562C31.1987 28.2542 30.7168 28.7416 30.1222 28.7416Z" transform="translate(31.97595 16.593874)" id="Path" fill="#000000" fill-rule="evenodd" stroke="none" />
    <path d="M31.1981 28.7418L23.6644 28.7418C23.07 28.7418 22.5879 28.2557 22.5879 27.6564C22.5879 27.0569 23.07 26.5723 23.6644 26.5723L31.1981 26.5719C31.7927 26.5719 32.2746 27.0578 32.2746 27.656C32.2746 28.254 31.7927 28.7418 31.1981 28.7418L31.1981 28.7418Z" transform="translate(30.900082 22.019817)" id="Path" fill="#000000" fill-rule="evenodd" stroke="none" />
    <path d="M53.5877 28.7422L1.27479 28.7422C0.681019 28.7422 0.199568 28.2564 0.199568 27.6568C0.199568 27.0573 0.681667 26.5715 1.27479 26.5715L53.5877 26.5715C54.1815 26.5715 54.6629 27.0573 54.6629 27.6568C54.6629 28.2564 54.1815 28.7422 53.5877 28.7422Z" transform="translate(17.447548 51.316105)" id="Path" fill="#000000" fill-rule="evenodd" stroke="none" />
    <path d="M50.8476 28.7416L4.01339 28.7416C3.41876 28.7416 2.93818 28.2557 2.93818 27.6575C2.93818 27.0595 3.42028 26.5721 4.01339 26.5721L50.8476 26.5721C51.4422 26.5721 51.9243 27.058 51.9243 27.6575C51.9243 28.257 51.4422 28.7416 50.8476 28.7416Z" transform="translate(17.44729 70.847466)" id="Path" fill="#000000" fill-rule="evenodd" stroke="none" />
    <path d="M39.3676 49.9132L18.7473 49.9132C11.8134 49.9132 5.96088 44.6823 5.12949 37.7433L0.0104295 1.23737C-0.0327694 0.925741 0.0594601 0.610844 0.264222 0.373476C0.469201 0.136106 0.76576 -2.38419e-07 1.07722 -2.38419e-07L57.0419 -2.38419e-07C57.3547 -2.38419e-07 57.6499 0.136106 57.8547 0.373476C58.0597 0.610846 58.1515 0.926178 58.1074 1.23737L52.9883 37.7433C52.1542 44.6828 46.302 49.9132 39.3675 49.9132L39.3676 49.9132ZM2.31444 2.17095L7.26221 37.4517C7.26351 37.4594 7.26351 37.4668 7.26438 37.4742C7.96096 43.3291 12.8975 47.7451 18.7464 47.7451L39.3667 47.7451C45.2156 47.7451 50.1508 43.3307 50.8487 37.4742C50.85 37.4668 50.85 37.4594 50.8508 37.4517L55.7999 2.17095L2.31435 2.17095L2.31444 2.17095Z" transform="translate(15.820645 64.86718)" id="Shape" fill="#000000" fill-rule="evenodd" stroke="none" />
    <path d="M6.45841 13.0216C2.89732 13.0216 -1.90735e-06 10.1004 -1.90735e-06 6.51003C-1.90735e-06 2.91987 2.89734 -1.90735e-06 6.45841 -1.90735e-06C10.0193 -1.90735e-06 12.9153 2.91986 12.9153 6.51003C12.9153 10.1004 10.0189 13.0216 6.45841 13.0216ZM6.45841 2.17139C4.08464 2.17139 2.153 4.11826 2.153 6.51199C2.153 8.90572 4.08421 10.8526 6.45841 10.8526C8.83197 10.8526 10.7636 8.90572 10.7636 6.51199C10.7636 4.11826 8.83197 2.17139 6.45841 2.17139L6.45841 2.17139Z" transform="translate(0.75173795 87.65326)" id="Shape" fill="#000000" fill-rule="evenodd" stroke="none" />
  </g>
</svg>