<?xml version="1.0" encoding="utf-8"?>
<!-- Generator: Adobe Illustrator 25.4.1, SVG Export Plug-In . SVG Version: 6.00 Build 0)  -->
<svg version="1.1" id="Calque_1" xmlns="http://www.w3.org/2000/svg" xmlns:xlink="http://www.w3.org/1999/xlink" x="0px" y="0px"
	 viewBox="0 0 126.25 99.91" style="enable-background:new 0 0 126.25 99.91;" xml:space="preserve">
<g id="Delivery">
	<path id="Shape" d="M83.15,0.06c-0.24-0.01-0.48,0.06-0.69,0.18L59.79,13.33c-0.64,0.21-1.02,0.86-0.88,1.52v26.19
		c0,0.47,0.25,0.91,0.66,1.14L82.46,55.4c0.01,0,0.03,0,0.04,0c0.02,0.02,0.04,0.04,0.06,0.06c0.02,0.02,0.05,0.04,0.07,0.06
		c0.01,0,0.03,0,0.04,0c0.02,0.02,0.05,0.04,0.07,0.06c0.02,0,0.04,0,0.06,0c0.02,0,0.05,0,0.07,0c0.02,0,0.04,0,0.06,0
		c0.03,0,0.06,0,0.08,0c0.01,0,0.03,0,0.04,0c0.02,0,0.05,0,0.07,0c0.02,0,0.04,0,0.06,0c0.02,0,0.05,0,0.07,0c0.02,0,0.04,0,0.06,0
		c0.02,0,0.05,0,0.07,0c0.02,0,0.04,0,0.06,0c0.02-0.02,0.05-0.04,0.07-0.06c0.02,0,0.04,0,0.06,0c0.02-0.02,0.05-0.04,0.07-0.06
		c0.02-0.02,0.03-0.04,0.04-0.06c0.03-0.02,0.06-0.04,0.08-0.06l22.89-13.22c0.41-0.24,0.66-0.67,0.66-1.14V14.75
		c0.11-0.62-0.24-1.23-0.83-1.45L83.75,0.18C83.56,0.07,83.35,0.01,83.13,0L83.15,0.06z M83.1,2.89l8.58,4.96L71.4,19.53l-8.55-4.94
		L83.1,2.89z M94.32,9.37l9.04,5.22L83.1,26.3l-9.07-5.24L94.32,9.37L94.32,9.37z M104.68,16.87v23.4l-20.26,11.7v-23.4
		L104.68,16.87z M61.53,16.87l8.71,5.03v5.51c0,0.47,0.25,0.91,0.66,1.14c0.41,0.24,0.91,0.24,1.32,0c0.41-0.24,0.66-0.67,0.66-1.14
		v-4l8.91,5.15v23.4l-8.94-5.17v-6.46c0.01-0.36-0.13-0.7-0.38-0.95c-0.25-0.25-0.59-0.39-0.95-0.39c-0.73,0.01-1.31,0.61-1.3,1.33
		v4.94l-8.68-5.02L61.53,16.87z M47.96,44.29c-0.7,0-1.4,0.1-2.11,0.29l-5.17,1.39l-5.17,1.39l-5.17,1.39l-5.17,1.39l-3.7,0.99V49.8
		c0-2.62-2.4-4.56-5.09-4.56H5.09C2.4,45.24,0,47.18,0,49.8v31.23c0,2.62,2.39,4.56,5.09,4.56h11.3c2.7,0,5.09-1.94,5.09-4.56v-0.98
		c0.09-0.01,0.19-0.03,0.28-0.06l10.31-2.76l2.64-0.62c0.37-0.07,0.74-0.1,1.11-0.1c0.74,0,1.48,0.14,2.18,0.43
		c0.7,0.29,1.35,0.71,1.93,1.29l3.15,3.16l3.15,3.16l3.15,3.16l3.15,3.16l3.15,3.16c0.01,0,0.03,0,0.04,0l3.68,3.55
		c0.04,0.05,0.09,0.1,0.15,0.14c0.05,0.04,0.1,0.08,0.16,0.11c0.87,0.65,2.14,1.47,3.4,1.81c1.04,0.28,2.14,0.36,3.23,0.22
		c1.09-0.14,2.17-0.49,3.18-1.07l52.49-30.35c4.03-2.33,5.42-7.52,3.09-11.56c-0.73-1.26-1.74-2.27-2.9-2.99
		c-1.28-0.79-2.75-1.21-4.24-1.24c-1.49-0.06-3.01,0.33-4.4,1.14l-4.25,2.46c-0.17-0.21-0.34-0.41-0.52-0.6
		c-0.48-0.5-1.03-0.93-1.62-1.3c-1.56-1.02-3.36-1.37-5.08-1.22c-1.69,0.15-3.32,0.77-4.7,1.73L84.85,62.1l-1.57,0.91
		c-0.09,0.05-0.18,0.11-0.25,0.18L52.46,45.51c-0.05-0.04-0.1-0.08-0.16-0.11c-0.94-0.54-1.98-0.9-3.06-1.05
		c-0.41-0.06-0.82-0.08-1.24-0.07L47.96,44.29z M47.96,46.96c1.02-0.06,2.07,0.23,3.04,0.79l37.05,21.43
		c0.29,0.17,0.55,0.35,0.8,0.55c0.11,0.15,0.25,0.28,0.42,0.38c1.83,1.82,2.27,4.67,0.92,7.03c-1.62,2.81-5.13,3.76-7.94,2.13
		l-5.88-3.4l-13.41-7.75c-0.41-0.25-0.92-0.25-1.33-0.02c-0.41,0.24-0.67,0.68-0.67,1.15c0,0.48,0.26,0.91,0.68,1.14l13.41,7.76
		l5.88,3.4c4.03,2.33,9.21,0.94,11.54-3.1c1.71-2.97,1.41-6.55-0.47-9.17l22.86-13.22c1.93-1.12,4.19-1.01,5.95,0.07
		c0.8,0.49,1.49,1.18,2,2.06c1.62,2.81,0.68,6.34-2.13,7.96L68.19,96.5c-0.7,0.41-1.45,0.65-2.19,0.74c-0.75,0.1-1.5,0.06-2.22-0.15
		c-0.44-0.11-1.92-0.94-2.55-1.41l-3.68-3.55l-3.14-3.15l-3.15-3.16l-3.15-3.16l-3.15-3.16l-3.15-3.16
		c-0.82-0.83-1.78-1.45-2.8-1.86c-1.02-0.41-2.1-0.62-3.18-0.62c-0.51,0-1.03,0.06-1.53,0.14c-0.04,0.02-0.08,0.04-0.13,0.06
		l-2.71,0.63c-0.01,0-0.03,0-0.04,0l-9.93,2.66V53.86l4.38-1.17l5.17-1.39l5.17-1.39l5.17-1.39l4.87-1.31
		c0.12,0,0.24-0.02,0.36-0.06c0.45-0.13,0.91-0.19,1.38-0.19L47.96,46.96z M16.39,47.87c1.49,0,2.46,0.95,2.46,1.92v31.23
		c0,0.97-0.97,1.92-2.46,1.92h-4.33v-3.88v-3.69c0.01-0.36-0.13-0.7-0.39-0.95s-0.6-0.39-0.95-0.38c-0.73,0.01-1.31,0.61-1.29,1.34
		v3.69v3.87H5.09c-1.49,0-2.46-0.95-2.46-1.92V49.79c0-0.97,0.97-1.92,2.46-1.92L16.39,47.87z M102.76,55.72
		c1.05,0,2.07,0.24,2.96,0.83c0.01,0.02,0.03,0.04,0.04,0.06c0.41,0.25,0.79,0.55,1.12,0.9c0.04,0.06,0.04,0.07,0.07,0.1
		l-14.93,8.63l-1.96,1.14c-0.22-0.16-0.45-0.31-0.68-0.44l-3.78-2.19l0.54-0.31l12.58-7.27c0.03-0.02,0.07-0.05,0.1-0.07
		c1.03-0.73,2.27-1.2,3.49-1.31C102.46,55.78,102.61,55.72,102.76,55.72L102.76,55.72z"/>
</g>
</svg>
