<?xml version="1.0" encoding="utf-8"?>
<!-- Generator: Adobe Illustrator 25.4.1, SVG Export Plug-In . SVG Version: 6.00 Build 0)  -->
<svg version="1.1" id="Calque_1" xmlns="http://www.w3.org/2000/svg" xmlns:xlink="http://www.w3.org/1999/xlink" x="0px" y="0px"
	 viewBox="0 0 70.12 95.77" style="enable-background:new 0 0 70.12 95.77;" xml:space="preserve">
<style type="text/css">
	.st0{fill:#8E76FF;}
</style>
<g id="Innovation" transform="translate(1 1)">
	<path id="Shape" class="st0" d="M0.42,70.3c1.06,1.01,2.48,1.53,3.93,1.45c5.18,0,12.78-4.64,18.03-8.36
		c1.02,2.07,1.61,4.33,1.73,6.65c-0.84,0-1.52,0.69-1.52,1.55v15.59c0.05,2.04,0.89,3.98,2.34,5.39c1.39,1.41,3.27,2.2,5.23,2.19
		h7.78c1.99,0.01,3.9-0.8,5.3-2.24c1.4-1.44,2.19-3.37,2.2-5.39V71.59c0.01-0.79-0.57-1.45-1.34-1.55c0.13-2.32,0.71-4.58,1.72-6.66
		c5.27,3.71,12.78,8.28,17.93,8.28c1.45,0.08,2.87-0.44,3.93-1.45c3.63-3.69,0-12.66-7.17-22.93c4.96-8.11,6.04-18.06,2.93-27.07
		c4.03-6.43,7.81-14.7,4.24-18.33c-2.63-2.67-7.93-1.68-15.77,2.91c-10.7-7.71-25.02-7.71-35.72,0C8.35,0.14,3.05-0.8,0.42,1.88
		c-3.57,3.63,0.24,11.9,4.25,18.42C1.55,29.3,2.62,39.27,7.59,47.37C0.44,57.68-3.21,66.61,0.42,70.3z M25.7,73.13h16.71V77H25.7
		V73.13z M33.05,70.04L29.5,52.01l0.84-0.93l2.35,4.31c0.29,0.48,0.81,0.77,1.37,0.74c0.55,0,1.07-0.3,1.34-0.79L37.76,51l0.82,0.93
		l-3.52,18.11H33.05z M25.7,80.09h16.71v3.86H25.7V80.09z M41.05,70.04h-2.89l3.49-18.2l0,0l0,0l0.59-3.09
		c0.11-0.55-0.09-1.12-0.5-1.49c-0.42-0.37-1-0.48-1.52-0.3c-0.52,0.18-0.91,0.64-1.02,1.19l0,0l-0.59-0.76
		c-0.33-0.35-0.81-0.53-1.29-0.46c-0.48,0.06-0.91,0.36-1.14,0.79l-2.13,3.79l-2.05-3.76c-0.24-0.44-0.67-0.73-1.15-0.79
		c-0.48-0.06-0.96,0.13-1.29,0.49l-0.74,0.83v-0.09c-0.16-0.84-0.96-1.38-1.78-1.22c-0.4,0.08-0.75,0.31-0.97,0.66
		c-0.23,0.34-0.31,0.76-0.23,1.17l4.12,21.25h-2.75c-0.3-6.34-3.5-12.16-8.66-15.73c-2.81-1.82-5.28-4.14-7.28-6.86
		C16.08,40.9,21.37,34.74,27.08,29c2.31-2.36,4.65-4.64,6.97-6.74c2.32,2.13,4.66,4.37,6.99,6.74c5.71,5.75,10.99,11.92,15.8,18.47
		c-1.96,2.76-4.4,5.14-7.19,7.03C44.56,58.02,41.37,63.77,41.05,70.04z M41.05,90.35c-0.84,0.85-1.97,1.33-3.16,1.33h-7.72
		c-1.19,0-2.32-0.47-3.16-1.33c-0.83-0.86-1.3-2.01-1.31-3.21v-0.09h16.71v0.09c0,1.22-0.47,2.39-1.31,3.26L41.05,90.35z
		 M61.48,54.59c4.85,8.17,5.21,12.36,4.07,13.61c-1.52,1.55-7.88,0-18.11-7.28c1.08-1.47,2.39-2.76,3.87-3.8
		c2.8-1.89,5.28-4.24,7.34-6.94C59.67,51.6,60.63,53.04,61.48,54.59z M58.58,44.73c-4.72-6.34-9.87-12.34-15.4-17.96
		c-2.26-2.3-4.56-4.51-6.84-6.6c4.82-4.31,9.97-8.22,15.4-11.68c10.64,8.75,13.53,24.02,6.84,36.16V44.73z M65.55,4.07
		c1.22,1.24,0.5,5.61-3.55,12.7c-1.83-3.78-4.37-7.15-7.49-9.92C61.02,3.22,64.52,3.02,65.55,4.07z M49.07,6.56
		c-5.28,3.47-10.3,7.34-15.01,11.57c-4.71-4.23-9.72-8.1-14.99-11.57C28.21,0.6,39.92,0.6,49.07,6.56L49.07,6.56z M2.58,4.07
		c1.03-1.05,4.56-0.85,11.03,2.78c-3.12,2.77-5.66,6.14-7.49,9.92C2.16,9.68,1.35,5.31,2.58,4.07z M5.95,30.68
		c0-8.62,3.84-16.78,10.44-22.19c5.43,3.47,10.57,7.39,15.37,11.71c-2.26,2.09-4.57,4.3-6.82,6.57
		c-5.52,5.59-10.66,11.56-15.39,17.86C7.19,40.38,5.95,35.57,5.95,30.68L5.95,30.68z M6.71,54.59c0.84-1.42,1.81-2.92,2.84-4.42
		c2.07,2.68,4.56,4.99,7.37,6.85c1.48,1.03,2.78,2.3,3.86,3.76c-10.27,7.29-16.62,8.96-18.23,7.36C1.43,66.95,1.81,62.69,6.71,54.59
		z"/>
	<path id="Shape_00000168811912524440013990000006734185374647768987_" class="st0" d="M33.71,31.41c-2.46,0-4.67,1.51-5.61,3.82
		c-0.94,2.31-0.42,4.97,1.32,6.74c1.74,1.77,4.35,2.3,6.62,1.34c2.27-0.96,3.75-3.21,3.75-5.71C39.78,34.17,37.06,31.41,33.71,31.41
		z M33.71,40.68c-1.23,0-2.34-0.75-2.81-1.91c-0.47-1.15-0.21-2.48,0.66-3.37c0.87-0.88,2.18-1.15,3.31-0.67
		c1.14,0.48,1.88,1.61,1.88,2.86C36.75,39.3,35.39,40.68,33.71,40.68z"/>
</g>
</svg>
