<?xml version="1.0" encoding="utf-8"?>
<svg width="59px" height="98px" viewBox="0 0 59 98" version="1.1" xmlns:xlink="http://www.w3.org/1999/xlink" xmlns="http://www.w3.org/2000/svg">
  <g id="Group" transform="translate(1 1)">
    <path d="M1.42372 71.3038C2.48579 72.3133 3.90696 72.838 5.3583 72.7565C10.5386 72.7565 18.1343 68.1204 23.3905 64.3961C24.4067 66.468 24.996 68.7292 25.1224 71.0411C24.2834 71.0411 23.6032 71.733 23.6032 72.5865L23.6032 88.1791C23.6518 90.2207 24.4929 92.1598 25.9427 93.5724C27.3304 94.9788 29.2097 95.7679 31.1686 95.7668L38.9466 95.7668C40.9383 95.7763 42.8497 94.9685 44.2484 93.526C45.648 92.0907 46.4388 90.1544 46.4512 88.1327L46.4512 72.5865C46.4567 71.8005 45.8814 71.1354 45.1143 71.0411C45.2402 68.7261 45.824 66.4607 46.8309 64.3806C52.1024 68.0895 59.6069 72.6637 64.7568 72.6637C66.2082 72.7453 67.6294 72.2206 68.6914 71.2111C72.3222 67.5177 68.6914 58.5546 61.5211 48.278C66.4827 40.172 67.5611 30.2138 64.453 21.2034C68.4787 14.7747 72.2614 6.50708 68.6914 2.8755C66.0633 0.202033 60.7615 1.19106 52.9227 5.78077C42.2233 -1.92692 27.9071 -1.92692 17.2076 5.78077C9.35365 1.1447 4.05184 0.202033 1.42372 2.8755C-2.14627 6.50708 1.66678 14.7747 5.67733 21.2961C2.54893 30.3023 3.62248 40.2676 8.59408 48.3708C1.43891 58.6783 -2.20703 67.6104 1.42372 71.3038ZM26.7023 74.1318L43.4129 74.1318L43.4129 77.9952L26.7023 77.9952L26.7023 74.1318ZM34.0549 71.0411L30.5001 53.0068L31.3357 52.0796L33.6903 56.3911C33.9785 56.874 34.5028 57.1585 35.0576 57.1329C35.6111 57.1376 36.1232 56.8356 36.3944 56.3448L38.7643 52.0023L39.5846 52.9296L36.0602 71.0411L34.0549 71.0411ZM26.7023 81.0859L43.4129 81.0859L43.4129 84.9493L26.7023 84.9493L26.7023 81.0859ZM42.0456 71.0411L39.1593 71.0411L42.6533 52.8368L42.6533 52.8368L42.6533 52.8368L43.2458 49.7461C43.3516 49.194 43.1598 48.6264 42.7427 48.2571C42.3256 47.8878 41.7465 47.773 41.2236 47.9558C40.7006 48.1386 40.3133 48.5913 40.2075 49.1434L40.2075 49.1434L39.615 48.3862C39.2813 48.0319 38.8021 47.8598 38.3237 47.9226C37.8419 47.9849 37.4185 48.2779 37.1844 48.7107L35.0576 52.4969L33.0067 48.7416C32.7696 48.3047 32.3396 48.0111 31.8522 47.9535C31.3687 47.8985 30.8887 48.0824 30.5609 48.448L29.8165 49.2825L29.8165 49.1898C29.6558 48.3543 28.861 47.8084 28.0391 47.969C27.6414 48.0473 27.291 48.284 27.0656 48.6264C26.8403 48.9688 26.7587 49.3886 26.839 49.7925L30.9559 71.0411L28.2062 71.0411C27.9085 64.7049 24.7018 58.8791 19.5471 55.3094C16.7324 53.4903 14.2667 51.1653 12.2704 48.448C17.0809 41.904 22.3672 35.7361 28.0847 29.9965C30.3938 27.6321 32.7333 25.3604 35.0576 23.2587C37.3819 25.3913 39.7213 27.6321 42.0456 29.9965C47.7583 35.7419 53.0394 41.9148 57.8447 48.4635C55.8814 51.2248 53.4478 53.6062 50.6592 55.4948C45.5588 59.0241 42.3725 64.775 42.0456 71.0411ZM42.0456 91.3471C41.2093 92.2018 40.0714 92.6804 38.8858 92.6761L31.1686 92.6761C29.983 92.6804 28.8451 92.2018 28.0087 91.3471C27.1797 90.4887 26.7112 89.3361 26.7023 88.1327L26.7023 88.04L43.4129 88.04L43.4129 88.1327C43.4159 89.3521 42.9465 90.5236 42.1064 91.3934L42.0456 91.3471ZM62.4781 55.5876C67.3242 63.7625 67.6888 67.9504 66.5494 69.2021C65.0303 70.7475 58.6651 69.2021 48.4412 61.9235C49.5221 60.4517 50.8303 59.1679 52.315 58.1219C55.1133 56.2275 57.5912 53.8842 59.6525 51.1833C60.6703 52.605 61.6274 54.0422 62.4781 55.5876ZM59.5766 45.7282C54.8531 39.3899 49.7063 33.3901 44.1724 27.7712C41.9089 25.4686 39.615 23.2587 37.3363 21.1725C42.1516 16.8604 47.3033 12.9533 52.7404 9.48962C63.3801 18.2365 66.2681 33.5136 59.5766 45.6509L59.5766 45.7282ZM66.5494 5.0699C67.7647 6.30619 67.0508 10.6795 62.9946 17.7727C61.1688 13.9937 58.623 10.6214 55.5053 7.85154C62.0224 4.21996 65.5164 4.01906 66.5494 5.0699ZM50.0667 7.55792C44.7874 11.0307 39.7704 14.8997 35.0576 19.1326C30.3498 14.9001 25.3379 11.0311 20.0636 7.55792C29.2085 1.60462 40.9218 1.60462 50.0667 7.55792L50.0667 7.55792ZM3.58091 5.0699C4.61392 4.01906 8.13834 4.21996 14.6099 7.85154C11.4921 10.6214 8.94637 13.9937 7.12051 17.7727C3.15555 10.6795 2.3504 6.30619 3.58091 5.0699ZM6.95341 31.6809C6.95275 23.0586 10.7899 14.8996 17.3899 9.48962C22.8206 12.9602 27.9624 16.8779 32.7637 21.2034C30.5001 23.2896 28.191 25.4995 25.9427 27.7712C20.4208 33.3641 15.2793 39.3326 10.5538 45.6355C8.1859 41.3796 6.94527 36.5711 6.95341 31.6809L6.95341 31.6809ZM7.71298 55.5876C8.54851 54.1658 9.52076 52.6668 10.5538 51.1678C12.622 53.8473 15.1116 56.1605 17.9216 58.0138C19.3998 59.044 20.703 60.3124 21.7803 61.769C11.5108 69.0631 5.16082 70.732 3.55052 69.1249C2.42636 67.9504 2.80614 63.6852 7.71298 55.5876Z" transform="translate(0.44242755 0.045223724)" id="Shape" fill="#000000" stroke="none" />
    <path d="M6.07675 0C3.61901 0 1.40327 1.50605 0.462729 3.81589C-0.477809 6.12573 0.042077 8.78447 1.77997 10.5523C3.51785 12.3202 6.1315 12.8491 8.40216 11.8923C10.6728 10.9355 12.1533 8.68157 12.1533 6.18142C12.1533 2.76752 9.43275 5.4902e-15 6.07675 0ZM6.07675 9.27213C4.84788 9.27213 3.74001 8.5191 3.26974 7.36418C2.79947 6.20926 3.05942 4.8799 3.92836 3.99596C4.7973 3.11202 6.10413 2.84759 7.23946 3.32598C8.37479 3.80436 9.11504 4.93134 9.11504 6.18142C9.11504 7.88837 7.75475 9.27213 6.07675 9.27213Z" transform="translate(29.073843 32.452457)" id="Shape" fill="#000000" stroke="none" />
  </g>
</svg>