<?xml version="1.0" encoding="utf-8"?>
<svg version="1.1" id="Calque_1" xmlns="http://www.w3.org/2000/svg" xmlns:xlink="http://www.w3.org/1999/xlink" x="0px" y="0px"
	 viewBox="0 0 104.9 53" style="enable-background:new 0 0 104.9 53;" xml:space="preserve">
	<style type="text/css">
		.st0{fill-rule:evenodd;clip-rule:evenodd;fill:#ffffff;}
	</style>
	<g id="Tag">
		<path id="Fill-1" class="st0" d="M24.7,5.2l1,8h-4.9L24.7,5.2z M15.3,21.9c0.4-1.1,1-2.1,1.8-3c0.5-0.6,1-1,1.6-1.4l0.1-0.2H19
			c0.5-0.3,1.1-0.6,1.6-0.7c1.2-0.4,2.5-0.5,3.7-0.5c1.2,0,2.5,0.1,3.7,0.4c1.1,0.2,2.1,0.4,3,0.6L28.5,0h-6L11.4,22.1h3.9
			C15.3,22,15.3,22,15.3,21.9L15.3,21.9z"/>
		<path id="Fill-3" class="st0" d="M34,17.7c0.4,0,0.8,0,1.2-0.1c0.3,0,0.6-0.1,0.8-0.3l0,0c0.4-0.2,0.9-0.4,1.3-0.6
			c0.3-0.1,0.5-0.1,0.8-0.1L41.2,0h-4.9l-3.1,17.6C33.5,17.7,33.8,17.7,34,17.7"/>
		<path id="Fill-5" class="st0" d="M18.5,0H0.8L0,4.3h6.4L3.3,22.1h4.9l3.1-17.8h6.4L18.5,0z"/>
		<path id="Fill-7" class="st0" d="M87.1,0l-0.8,4.3h6.4l-3.1,17.8h4.9l3.1-17.8h6.4l0.8-4.3H87.1z"/>
		<path id="Fill-9" class="st0" d="M81.5,0l-2.3,13.1L73.4,0h-4.6l-3.9,22.1h4.9L72.1,9l5.8,13.1h4.6L86.4,0H81.5z"/>
		<path id="Fill-11" class="st0" d="M41.4,18.4c0.5,0.8,0.6,1.6,0.4,2.5c-0.1,0.4-0.2,0.8-0.4,1.2h6.4l0.7-4.3H41
			C41.2,18,41.3,18.2,41.4,18.4"/>
		<path id="Fill-13" class="st0" d="M64,13.2l0.8-4.3h-8.9l0.8-4.6h10.5L67.9,0H52.5l-3.9,22.1H64l0.7-4.3H54.2l0.8-4.7H64z"/>
		<path id="Fill-15" class="st0" d="M19.9,40.7c0.2-2.1,0.5-4.2,1.1-6.4c0.6-2.1,1.2-4.2,1.9-6.2c0.3-1,0.7-2,1-3.1
			c0.3-1.1,0.8-2.1,1.3-3c0.2-0.3,0.5-0.6,0.8-0.9c0.3-0.3,0.6-0.4,1-0.6c0.3-0.1,0.7-0.1,1.1,0c0.4,0.1,0.7,0.3,1,0.7
			c0.3,0.4,0.5,0.8,0.4,1.2c0,0.4-0.1,0.8-0.3,1.2c-0.2,0.4-0.4,0.8-0.7,1.2c-0.3,0.4-0.5,0.8-0.7,1.1c-0.5,1.1-1.1,2.2-1.6,3.2
			c-0.5,1.1-1,2.2-1.5,3.3c-0.5,1.1-0.9,2.2-1.4,3.3c-0.5,1.1-0.9,2.2-1.3,3.4c-0.1,0.3-0.2,0.7-0.3,1.1c-0.1,0.4-0.2,0.7-0.3,1
			c-0.1,0.2-0.3,0.3-0.4,0.4c-0.2,0-0.4,0-0.5,0c-0.2-0.1-0.3-0.2-0.4-0.4C19.9,41.1,19.9,40.9,19.9,40.7 M31,18.7
			c0.5,0.1,0.9,0.2,1.4,0.3c0.5,0.1,1,0.2,1.5,0.2c0.5,0,1,0,1.5-0.1c0.5-0.1,0.9-0.2,1.4-0.5c0.3-0.2,0.7-0.3,1-0.4
			c0.3-0.1,0.7-0.1,1.1,0c0.5,0.2,0.9,0.5,1.2,1c0.3,0.5,0.4,1,0.2,1.5c-0.1,0.5-0.3,0.9-0.7,1.2c-0.4,0.3-0.8,0.5-1.3,0.6
			c-0.5,0.1-1,0.2-1.5,0.2c-0.5,0-1,0-1.4-0.1c-1.3-0.2-2.5-0.6-3.7-1.2c-1.2-0.6-2.4-1.1-3.6-1.5C27,19.5,26,19.2,24.9,19
			c-1-0.2-2.1-0.1-3.2,0.4C21,19.6,20.5,20,20,20.4c-0.4,0.5-0.7,1-0.9,1.6c-0.2,0.6-0.2,1.2-0.1,1.8c0.1,0.6,0.4,1.2,0.9,1.7
			c0.3,0.4,0.6,0.8,0.8,1.1C21,27,21,27.5,20.9,28c-0.2,0.6-0.5,1.1-1.1,1.4c-0.6,0.3-1.2,0.3-1.8,0c-0.7-0.3-1.2-0.8-1.5-1.6
			c-0.3-0.8-0.4-1.6-0.4-2.5c0-0.9,0.3-1.8,0.6-2.8c0.4-1,0.9-1.8,1.5-2.5c0.8-0.9,1.8-1.6,2.8-1.9c1.1-0.3,2.2-0.5,3.3-0.5
			c1.1,0,2.3,0.1,3.4,0.4C28.9,18.2,30,18.5,31,18.7"/>
		<path id="Fill-17" class="st0" d="M35.3,31.7c0.1-0.1,0.3-0.4,0.6-0.8c0.3-0.4,0.5-0.8,0.7-1.3c0.2-0.4,0.4-0.9,0.4-1.3
			c0.1-0.4,0-0.7-0.3-0.8c-0.4-0.2-0.7-0.2-1.1,0.1c-0.4,0.3-0.8,0.6-1.1,1c-0.4,0.4-0.7,0.8-1,1.3c-0.3,0.5-0.5,0.8-0.6,1
			c-0.3,0.5-0.6,1.1-0.9,1.6c-0.3,0.5-0.5,1.1-0.7,1.7c0.8-0.2,1.5-0.5,2.2-1C34.2,32.9,34.8,32.3,35.3,31.7 M31,37.2
			c0.1,0.7,0.4,1.2,0.8,1.5c0.4,0.3,0.9,0.4,1.4,0.4c0.5,0,1-0.1,1.6-0.3c0.6-0.2,1.1-0.5,1.5-0.7c1.1-0.7,2-1.5,2.8-2.5
			c0.8-1,1.5-2.1,2.2-3.1c0.1-0.1,0.2-0.3,0.3-0.4c0.1-0.1,0.2-0.3,0.4-0.3c0.3-0.1,0.5-0.1,0.8,0.1c0.2,0.2,0.4,0.4,0.4,0.6
			c0,0.2,0,0.5-0.2,0.7c-0.1,0.3-0.3,0.5-0.5,0.8c-0.2,0.3-0.4,0.5-0.6,0.7c-0.2,0.2-0.3,0.4-0.5,0.6c-0.8,1.1-1.8,2.1-2.9,3
			c-1.1,0.9-2.3,1.6-3.6,2.1c-1.1,0.4-2.2,0.6-3.3,0.5c-1.1-0.1-2-0.6-2.9-1.5c-0.9-1-1.4-2.1-1.6-3.3c-0.2-1.2-0.1-2.5,0.2-3.8
			c0.2-0.7,0.5-1.5,0.8-2.2c0.3-0.7,0.8-1.4,1.3-2c0.5-0.6,1.1-1.1,1.7-1.6c0.6-0.4,1.4-0.7,2.2-0.8c1.3-0.2,2.4-0.1,3.3,0.3
			c0.9,0.3,1.7,1.1,2.4,2.2c0.5,0.8,0.7,1.7,0.8,2.5c0,0.8-0.2,1.7-0.6,2.5c-0.4,0.8-0.9,1.4-1.6,1.8c-0.6,0.4-1.3,0.7-2.1,0.9
			c-0.8,0.2-1.5,0.3-2.3,0.3c-0.8,0-1.6,0.1-2.3,0.1C31,36.4,31,36.9,31,37.2"/>
		<path id="Fill-19" class="st0" d="M51,29.3c0-0.3,0-0.7-0.1-1c-0.1-0.3-0.2-0.6-0.5-0.7c-0.4-0.3-0.8-0.2-1.3,0.1
			c-0.5,0.4-1,0.8-1.4,1.4c-0.4,0.6-0.8,1.2-1.2,1.8c-0.3,0.6-0.6,1-0.7,1.2c-0.4,0.6-0.7,1.3-1,2c-0.3,0.7-0.5,1.4-0.7,2.1
			c0,0.2-0.1,0.4-0.1,0.8c0,0.3,0,0.6,0,0.9c0,0.3,0.1,0.6,0.2,0.8c0.1,0.3,0.3,0.4,0.6,0.4c0.4,0,0.8-0.1,1.1-0.4
			c0.3-0.3,0.6-0.6,0.8-0.9c0.5-0.6,0.9-1.3,1.3-1.9c0.4-0.7,0.7-1.3,1.1-2c0.4-0.8,0.7-1.6,1.1-2.5C50.5,30.6,50.8,29.8,51,29.3
			M56,28.9c-0.4,0.7-0.8,1.5-1.2,2.2c-0.4,0.7-0.8,1.5-1.1,2.2c-0.2,0.5-0.4,0.9-0.6,1.4c-0.2,0.5-0.3,0.9-0.5,1.4
			c-0.1,0.4-0.3,0.9-0.4,1.4c-0.2,0.5-0.2,1-0.1,1.5c0.4-0.1,0.7-0.4,1.1-0.7c0.3-0.3,0.7-0.7,1-1.1c0.3-0.4,0.6-0.8,0.8-1.2
			c0.3-0.4,0.5-0.8,0.7-1.1c0.3-0.4,0.6-0.9,0.8-1.3c0.3-0.4,0.5-0.9,0.8-1.3c0.1-0.2,0.2-0.3,0.4-0.5c0.2-0.1,0.4-0.2,0.5-0.3
			c0.2,0,0.3,0,0.5,0.1c0.1,0.1,0.2,0.3,0.3,0.6c0,0.3,0,0.6-0.3,1c-0.2,0.3-0.4,0.6-0.6,0.9c-0.3,0.5-0.7,1.1-1.2,1.8
			c-0.5,0.8-1,1.5-1.6,2.2c-0.6,0.7-1.2,1.3-1.8,1.8c-0.6,0.5-1.2,0.8-1.7,0.8c-0.4,0-0.7-0.1-1-0.3c-0.3-0.2-0.6-0.5-0.9-0.9
			c-0.3-0.4-0.5-0.7-0.7-1.2c-0.2-0.4-0.3-0.8-0.4-1.2l-0.5,0.8c-0.3,0.5-0.7,1-1.2,1.5c-0.4,0.5-1,0.9-1.6,1.1
			c-0.5,0.2-1,0.3-1.5,0.1c-0.5-0.1-0.9-0.3-1.3-0.7c-0.4-0.3-0.8-0.7-1.1-1.2c-0.3-0.5-0.6-0.9-0.8-1.3c-0.4-1-0.6-2-0.6-3
			c0-1,0.2-1.9,0.6-3c0.3-0.8,0.6-1.6,1-2.3c0.4-0.7,0.9-1.4,1.5-2c0.5-0.5,1-0.9,1.6-1.2c0.6-0.3,1.2-0.6,1.9-0.7
			c0.6-0.1,1.3-0.2,2-0.1c0.7,0.1,1.3,0.3,1.9,0.6c0.2,0.1,0.4,0.3,0.6,0.6c0.2,0.2,0.3,0.5,0.4,0.8c0.1-0.2,0.3-0.4,0.4-0.6
			c0.1-0.2,0.3-0.4,0.5-0.5c0.4-0.3,0.9-0.5,1.4-0.4c0.5,0.1,0.9,0.2,1.2,0.5c0.3,0.3,0.6,0.7,0.7,1.1C56.3,27.9,56.3,28.4,56,28.9"
			/>
		<path id="Fill-21" class="st0" d="M64.5,34.4c0.2-0.6,0.5-1.3,0.7-1.9c0.3-0.6,0.5-1.2,0.8-1.9c0.1-0.2,0.2-0.5,0.3-0.8
			c0.1-0.3,0.2-0.6,0.3-1c0.1-0.3,0.2-0.6,0.2-0.9c0-0.3,0-0.5-0.1-0.6c-0.1-0.2-0.4-0.1-0.7,0.1c-0.3,0.2-0.7,0.6-1.1,1.1
			c-0.4,0.5-0.8,1-1.3,1.6c-0.5,0.6-0.9,1.2-1.3,1.7c-0.4,0.6-0.7,1.1-1,1.5c-0.3,0.4-0.4,0.7-0.5,0.8c-0.4,0.7-0.8,1.4-1.3,2.1
			c-0.4,0.7-0.8,1.5-1,2.2c-0.1,0.2-0.1,0.5-0.2,0.8c-0.1,0.3-0.2,0.6-0.3,0.8c-0.1,0.2-0.3,0.4-0.4,0.5c-0.2,0.1-0.4,0.1-0.7-0.1
			c-0.2-0.1-0.4-0.3-0.4-0.5c-0.1-0.3-0.1-0.5-0.1-0.8c0-0.3,0-0.6,0.1-0.9c0-0.3,0.1-0.5,0.1-0.7c0.1-1.7,0.4-3.4,0.8-5
			c0.2-0.8,0.3-1.6,0.5-2.5c0.2-0.8,0.4-1.6,0.6-2.4c0.1-0.4,0.4-0.8,0.8-1.2c0.4-0.4,0.8-0.6,1.3-0.6c0.4,0,0.7,0,1.1,0.2
			c0.3,0.2,0.6,0.4,0.8,0.7c0.2,0.3,0.3,0.6,0.4,1c0,0.4,0,0.7-0.2,1.1c0.3-0.4,0.6-0.7,0.9-1.1c0.4-0.4,0.7-0.8,1.1-1.1
			c0.2-0.2,0.5-0.4,0.9-0.6c0.4-0.2,0.7-0.3,1.1-0.4c0.4-0.1,0.8-0.1,1.2-0.1c0.4,0,0.7,0.1,1.1,0.2c0.5,0.3,0.9,0.6,1.2,1.1
			c0.3,0.4,0.5,0.9,0.7,1.3c1.6-1.9,3.2-2.8,4.8-2.6c0.3,0,0.5,0.2,0.8,0.3c0.2,0.2,0.4,0.4,0.6,0.7c0.2,0.3,0.3,0.5,0.4,0.8
			c0.1,0.3,0.2,0.5,0.2,0.8c0.1,0.8,0.1,1.7-0.1,2.6c-0.2,0.9-0.5,1.8-0.9,2.7c-0.4,0.9-0.9,1.7-1.4,2.4c-0.5,0.8-1.1,1.4-1.7,1.9
			c-0.1,0.1-0.3,0.3-0.5,0.5c-0.2,0.2-0.3,0.4-0.4,0.6c-0.1,0.2-0.1,0.3,0,0.3c0.1,0,0.4-0.1,0.8-0.4c0.5-0.3,0.9-0.7,1.5-1.2
			c0.5-0.5,1.1-1.1,1.6-1.7c0.5-0.6,1-1.2,1.4-1.8c0.4-0.6,0.8-1.1,1-1.5c0.1-0.2,0.3-0.5,0.5-0.7c0.2-0.3,0.4-0.3,0.8-0.3
			c0.2,0,0.4,0.1,0.5,0.3c0.1,0.1,0.1,0.3,0.1,0.4c0,0.2-0.1,0.3-0.1,0.5s-0.1,0.3-0.2,0.5c-0.5,0.8-1,1.5-1.6,2.2
			c-0.6,0.7-1.2,1.4-1.8,2c-0.3,0.3-0.6,0.7-1,1c-0.4,0.3-0.7,0.7-1.1,1c-0.4,0.3-0.8,0.6-1.2,0.8c-0.4,0.2-0.9,0.4-1.3,0.5
			c-0.5,0.1-0.9,0-1.3-0.2c-0.3-0.2-0.6-0.5-0.7-0.9c-0.2-0.4-0.2-0.8-0.3-1.2c0-0.5,0-0.9,0.1-1.3c0.2-1.1,0.5-2.2,1.1-3.1
			c0.5-0.9,1.1-1.9,1.7-2.9c0.1-0.1,0.3-0.4,0.5-0.8c0.2-0.4,0.4-0.7,0.6-1.1c0.2-0.4,0.3-0.8,0.4-1.1c0.1-0.4,0-0.6-0.2-0.8
			c-0.1-0.1-0.3,0-0.6,0.2c-0.3,0.2-0.7,0.5-1,0.8c-0.4,0.3-0.7,0.6-1,0.9c-0.3,0.3-0.5,0.5-0.5,0.6c-0.6,0.7-1.3,1.5-1.8,2.2
			c-0.6,0.8-1.1,1.5-1.7,2.3c-0.5,0.6-0.9,1.3-1.3,2c-0.4,0.7-0.8,1.4-1.1,2.1c-0.1,0.2-0.2,0.4-0.3,0.7c-0.1,0.3-0.2,0.5-0.4,0.7
			C64.5,40,64.2,40,64,40c-0.3-0.1-0.4-0.2-0.5-0.4c-0.1-0.2-0.1-0.6,0-1.1c0.1-0.5,0.2-1,0.3-1.5c0.1-0.5,0.3-1,0.4-1.5
			C64.3,34.9,64.4,34.6,64.5,34.4"/>
		<path id="Fill-23" class="st0" d="M21.3,53c0,0,0.2-0.1,0.6-0.3c0.4-0.2,0.9-0.5,1.6-0.9c0.7-0.4,1.6-0.8,2.6-1.2
			c0.5-0.2,1-0.4,1.6-0.7c0.6-0.2,1.2-0.5,1.8-0.7c1.3-0.5,2.7-0.9,4.2-1.3c1.5-0.4,3.1-0.8,4.8-1.1c1.7-0.3,3.4-0.6,5.2-0.9
			c0.9-0.1,1.8-0.2,2.7-0.3c0.4,0,0.9-0.1,1.4-0.1c0.5,0,0.9-0.1,1.4-0.1c0.5,0,0.9,0,1.4-0.1c0.5,0,0.9,0,1.4,0c0.9,0,1.8,0,2.7,0
			c0.9,0,1.8,0.1,2.6,0.1c0.9,0,1.7,0.1,2.6,0.2c0.8,0.1,1.7,0.2,2.5,0.3c0.4,0.1,0.8,0.1,1.2,0.2c0.4,0.1,0.8,0.1,1.2,0.2
			c1.5,0.2,3,0.6,4.3,0.9c1.3,0.3,2.5,0.6,3.6,1c1,0.3,2,0.6,2.7,0.9c0.7,0.3,1.3,0.5,1.7,0.6c0.4,0.1,0.6,0.2,0.6,0.2
			s-0.2,0-0.6-0.1c-0.4-0.1-1-0.2-1.8-0.3c-0.2,0-0.4-0.1-0.6-0.1c-0.2,0-0.4-0.1-0.7-0.1c-0.5-0.1-1-0.2-1.5-0.3
			c-0.3,0-0.5-0.1-0.8-0.1c-0.3,0-0.6-0.1-0.9-0.1c-0.6-0.1-1.2-0.2-1.9-0.3c-0.7-0.1-1.4-0.2-2.1-0.2c-0.7-0.1-1.4-0.2-2.2-0.2
			c-0.4,0-0.8-0.1-1.2-0.1c-0.4,0-0.8-0.1-1.2-0.1c-0.8,0-1.6-0.1-2.4-0.2c-1.7-0.1-3.4-0.1-5.1-0.1c-0.9,0-1.7,0-2.6,0
			c-0.4,0-0.9,0-1.3,0c-0.4,0-0.9,0-1.3,0.1c-0.4,0-0.9,0-1.3,0.1c-0.4,0-0.9,0.1-1.3,0.1c-0.9,0.1-1.7,0.2-2.6,0.2
			c-0.4,0-0.9,0.1-1.3,0.1c-0.4,0.1-0.9,0.1-1.3,0.2c-0.8,0.1-1.7,0.2-2.5,0.4c-0.4,0.1-0.8,0.1-1.2,0.2c-0.4,0.1-0.8,0.1-1.2,0.2
			c-0.8,0.1-1.6,0.3-2.3,0.4c-0.7,0.2-1.5,0.3-2.2,0.5c-0.4,0.1-0.7,0.2-1,0.2c-0.3,0.1-0.7,0.2-1,0.2c-1.3,0.3-2.5,0.6-3.5,1
			c-1,0.3-1.9,0.6-2.7,0.8C22.1,52.7,21.3,53,21.3,53"/>
	</g>
</svg>
