<?xml version="1.0" encoding="utf-8"?>
<svg width="105px" height="53px" viewBox="0 0 105 53" version="1.1" xmlns:xlink="http://www.w3.org/1999/xlink" xmlns="http://www.w3.org/2000/svg">
  <g id="Logo">
    <path d="M13.2897 5.2083L14.2998 13.1631L9.4383 13.1631L13.2897 5.2083ZM3.9195 21.9477C4.3518 20.8326 4.9557 19.8396 5.715 18.9957C6.2169 18.4365 6.7608 17.9646 7.3428 17.5818L7.4181 17.4246L7.6002 17.4246C8.1129 17.1159 8.652 16.8708 9.2178 16.6989C10.4154 16.3353 11.6736 16.1583 12.9645 16.1712C14.1975 16.1844 15.4473 16.3209 16.6791 16.5771C17.7558 16.8021 18.7665 17.0148 19.7163 17.2179L17.109 0L11.1114 0L0 22.0962L3.8649 22.0962C3.8832 22.0467 3.9003 21.9972 3.9195 21.9477L3.9195 21.9477Z" transform="translate(11.41032 0.0003)" id="Fill-1" fill="#000000" fill-rule="evenodd" stroke="none" />
    <path d="M0.8655 17.7285C1.2699 17.7471 1.6749 17.7285 2.0712 17.6706C2.3661 17.6277 2.6367 17.5287 2.8977 17.3691L2.9364 17.3463C3.3618 17.1033 3.8028 16.9104 4.2465 16.773C4.5063 16.692 4.7736 16.6479 5.0466 16.6359L7.9908 0L3.0981 0L0 17.6331C0.2922 17.6793 0.5829 17.7153 0.8655 17.7285" transform="translate(33.18258 0.00027)" id="Fill-3" fill="#000000" fill-rule="evenodd" stroke="none" />
    <path d="M18.4665 0L0.7575 0L0 4.2615L6.408 4.2615L3.2829 22.0965L8.1759 22.0965L11.3007 4.2615L17.7087 4.2615L18.4665 0Z" transform="translate(3E-05 0.00021)" id="Fill-5" fill="#000000" fill-rule="evenodd" stroke="none" />
    <path d="M0.7575 0L0 4.2615L6.408 4.2615L3.2829 22.0965L8.1759 22.0965L11.301 4.2615L17.709 4.2615L18.4662 0L0.7575 0Z" transform="translate(86.38707 0.00021)" id="Fill-7" fill="#000000" fill-rule="evenodd" stroke="none" />
    <path d="M16.6041 0L14.2998 13.1001L8.4603 0L3.8829 0L0 22.0965L4.893 22.0965L7.1976 8.9964L13.0371 22.0965L17.6142 22.0965L21.4971 0L16.6041 0Z" transform="translate(64.88997 0.00021)" id="Fill-9" fill="#000000" fill-rule="evenodd" stroke="none" />
    <path d="M0.4146 0.558C0.8775 1.3239 1.0203 2.2041 0.8289 3.1062C0.7461 3.528 0.5955 3.9162 0.3828 4.2615L6.7863 4.2615L7.5126 0L0 0C0.1527 0.1704 0.2919 0.3558 0.4146 0.558" transform="translate(41.016 17.83521)" id="Fill-11" fill="#38424E" fill-rule="evenodd" stroke="none" />
    <path d="M15.3729 13.1631L16.1304 8.9016L7.1973 8.9016L8.0178 4.2615L18.5295 4.2615L19.2873 0L3.8826 0L0 22.0965L15.4044 22.0965L16.1304 17.835L5.619 17.835L6.4395 13.1631L15.3729 13.1631Z" transform="translate(48.57792 0.00018)" id="Fill-13" fill="#000000" fill-rule="evenodd" stroke="none" />
    <path d="M3.87193 23.0859C4.03873 20.964 4.42003 18.8421 5.01643 16.7199C5.61223 14.5983 6.23233 12.5238 6.87613 10.497C7.20973 9.49562 7.53763 8.45312 7.85953 7.36772C8.18143 6.28322 8.62843 5.29952 9.20053 4.41722C9.41533 4.10762 9.67753 3.82172 9.98773 3.55892C10.297 3.29702 10.6249 3.11192 10.9711 3.00452C11.3164 2.89742 11.6683 2.89172 12.0262 2.98682C12.3838 3.08222 12.7174 3.32102 13.0276 3.70202C13.3369 4.08392 13.486 4.47722 13.4743 4.88222C13.462 5.28782 13.3672 5.69312 13.1884 6.09842C13.0093 6.50402 12.7888 6.90302 12.5266 7.29632C12.2641 7.68962 12.0379 8.05352 11.8471 8.38712C11.2984 9.45992 10.7563 10.539 10.2199 11.6238C9.68383 12.7089 9.17683 13.8114 8.70013 14.9316C8.22283 16.0047 7.75243 17.0898 7.28743 18.1863C6.82243 19.2831 6.39883 20.4036 6.01783 21.5481C5.89813 21.882 5.80903 22.2453 5.74963 22.6389C5.68993 23.0322 5.57623 23.3718 5.40973 23.658C5.29033 23.8725 5.14153 24.0036 4.96273 24.0516C4.78423 24.099 4.61083 24.0873 4.44433 24.0159C4.27723 23.9439 4.13413 23.8245 4.01503 23.658C3.89533 23.4912 3.84793 23.3004 3.87193 23.0859M14.9587 1.05542C15.4111 1.15112 15.8941 1.25222 16.4071 1.35962C16.9195 1.46672 17.4262 1.53272 17.9272 1.55612C18.4276 1.58012 18.9223 1.55612 19.4113 1.48472C19.8997 1.41332 20.359 1.24652 20.7883 0.984018C21.1219 0.793518 21.4612 0.644118 21.8074 0.537018C22.1527 0.429618 22.528 0.435918 22.9339 0.554718C23.458 0.746118 23.8576 1.06772 24.1321 1.52042C24.406 1.97372 24.4834 2.47412 24.3643 3.02252C24.2689 3.52322 24.0301 3.91652 23.6491 4.20272C23.2675 4.48892 22.8268 4.69772 22.3258 4.82852C21.8254 4.95992 21.3121 5.02532 20.7883 5.02532C20.2633 5.02532 19.7983 4.98962 19.3933 4.91792C18.1057 4.70342 16.8598 4.31612 15.6559 3.75572C14.452 3.19562 13.2421 2.68892 12.0262 2.23592C10.9531 1.83062 9.90373 1.53272 8.87893 1.34192C7.85353 1.15112 6.78073 1.27022 5.66023 1.69922C4.99243 1.96172 4.43803 2.32502 3.99703 2.79002C3.55573 3.25502 3.25183 3.77342 3.08503 4.34582C2.91823 4.91792 2.89393 5.50802 3.01363 6.11612C3.13273 6.72392 3.43063 7.30232 3.90763 7.85072C4.21723 8.23232 4.48003 8.61392 4.69453 8.99492C4.90903 9.37682 4.94473 9.82982 4.80193 10.3542C4.63453 10.9743 4.25323 11.427 3.65743 11.7132C3.06103 11.9991 2.47723 12.0114 1.90483 11.7489C1.21333 11.4393 0.712626 10.9029 0.403026 10.1394C0.0934257 9.37682 -0.0379743 8.54222 0.00942573 7.63592C0.0577257 6.73022 0.265926 5.80022 0.635526 4.84652C1.00483 3.89312 1.51153 3.05822 2.15533 2.34302C2.98963 1.41332 3.93733 0.787218 4.99843 0.465618C6.05923 0.143418 7.16203 -0.0110823 8.30683 0.000617669C9.45103 0.0126177 10.5955 0.138018 11.74 0.375918C12.8842 0.614718 13.9573 0.840918 14.9587 1.05542" transform="translate(16.052725 17.627863)" id="Fill-15" fill="#8277FF" fill-rule="evenodd" stroke="none" />
    <path d="M8.19402 6.33969C8.31282 6.19659 8.50332 5.92299 8.76612 5.51739C9.02832 5.11209 9.26712 4.68909 9.48132 4.24749C9.69582 3.80679 9.84462 3.38949 9.92862 2.99589C10.0117 2.60259 9.92232 2.33409 9.66042 2.19129C9.30252 2.00049 8.92722 2.03049 8.53392 2.28069C8.14032 2.53119 7.75872 2.85879 7.38912 3.26409C7.01922 3.66999 6.69192 4.09899 6.40602 4.55169C6.11952 5.00499 5.90502 5.35059 5.76222 5.58879C5.45202 6.11349 5.16582 6.64989 4.90362 7.19799C4.64112 7.74669 4.41492 8.31909 4.22412 8.91489C5.01102 8.72409 5.73792 8.40249 6.40602 7.94919C7.07292 7.49649 7.66932 6.96009 8.19402 6.33969M3.93822 11.8474C4.05702 12.5626 4.31922 13.0579 4.72512 13.3315C5.13012 13.606 5.58882 13.7371 6.10182 13.7251C6.61422 13.7131 7.15062 13.5997 7.71132 13.3852C8.27112 13.1707 8.76612 12.9328 9.19542 12.67C10.2685 12.0028 11.2099 11.1622 12.0205 10.1485C12.8308 9.13539 13.5586 8.09229 14.2021 7.01949C14.2972 6.87639 14.3866 6.73329 14.4706 6.59019C14.5537 6.44709 14.6791 6.33969 14.8459 6.26829C15.1078 6.14919 15.3583 6.16719 15.5971 6.32169C15.835 6.47709 15.9781 6.68559 16.0261 6.94779C16.0495 7.16229 15.9958 7.40079 15.8653 7.66299C15.7339 7.92549 15.5791 8.18769 15.4003 8.44989C15.2215 8.71239 15.0367 8.95689 14.8459 9.18309C14.6548 9.40989 14.5 9.60669 14.3812 9.77289C13.5463 10.87 12.5806 11.8597 11.4841 12.7414C10.3873 13.6237 9.19542 14.3152 7.90782 14.8159C6.78702 15.2452 5.69052 15.4177 4.61772 15.3343C3.54462 15.2506 2.57892 14.7445 1.72062 13.8145C0.81432 12.8131 0.27222 11.7043 0.0937205 10.4884C-0.0853795 9.27219 -0.00767953 8.02089 0.32592 6.73329C0.51672 5.99469 0.784621 5.25519 1.13082 4.51599C1.47582 3.77709 1.89972 3.09759 2.40042 2.47749C2.90112 1.85769 3.47322 1.33299 4.11702 0.903693C4.76082 0.474393 5.49942 0.200793 6.33432 0.0813929C7.62192 -0.0854071 8.73612 0.00429288 9.67812 0.349293C10.6195 0.695493 11.4127 1.42839 12.0562 2.54889C12.5329 3.38379 12.7951 4.21809 12.8431 5.05239C12.8905 5.88699 12.6877 6.72129 12.2353 7.55589C11.8294 8.34249 11.3056 8.93889 10.6618 9.34389C10.018 9.74949 9.32052 10.0414 8.56932 10.2202C7.81842 10.399 7.03752 10.5064 6.22692 10.5421C5.41602 10.5778 4.64112 10.5958 3.90222 10.5958C3.85422 11.0728 3.86652 11.4898 3.93822 11.8474" transform="translate(27.10869 25.361486)" id="Fill-17" fill="#8277FF" fill-rule="evenodd" stroke="none" />
    <path d="M10.5365 4.04157C10.5365 3.70797 10.4945 3.37977 10.4114 3.05787C10.3274 2.73597 10.1666 2.50347 9.92871 2.36037C9.54681 2.09847 9.11151 2.14617 8.62341 2.50347C8.13441 2.86107 7.66911 3.32607 7.22841 3.89817C6.78681 4.47057 6.39351 5.05527 6.04821 5.65077C5.70201 6.24717 5.46981 6.65217 5.35071 6.86667C4.99311 7.51047 4.66521 8.17227 4.36731 8.85147C4.06881 9.53127 3.83661 10.2285 3.66981 10.9437C3.62181 11.1351 3.58611 11.3853 3.56271 11.6949C3.53871 12.0051 3.53871 12.315 3.56271 12.6246C3.58611 12.9351 3.65781 13.2147 3.77721 13.4649C3.89631 13.7154 4.08651 13.8528 4.34931 13.8762C4.75461 13.9245 5.12391 13.7991 5.45811 13.5009C5.79171 13.203 6.06621 12.9108 6.28071 12.6246C6.75741 12.0051 7.18641 11.361 7.56801 10.6935C7.94931 10.0263 8.30691 9.34677 8.64111 8.65497C8.99871 7.86807 9.35031 7.04547 9.69591 6.18717C10.0415 5.32887 10.322 4.61367 10.5365 4.04157M15.4721 3.64797C15.0662 4.38717 14.6672 5.12067 14.2739 5.84757C13.8803 6.57507 13.5167 7.31997 13.1831 8.08287C12.992 8.53587 12.8075 8.99457 12.6287 9.45987C12.4499 9.92427 12.2888 10.3956 12.1457 10.8723C12.0263 11.2779 11.8832 11.7483 11.7167 12.285C11.5493 12.8214 11.5256 13.3164 11.645 13.7691C12.0029 13.626 12.3542 13.3935 12.7001 13.0719C13.0454 12.7497 13.3676 12.3921 13.6658 11.9988C13.9637 11.6055 14.2436 11.2002 14.5061 10.7829C14.7683 10.3659 14.9945 10.014 15.1859 9.72777C15.4721 9.29847 15.7517 8.86377 16.0259 8.42247C16.2998 7.98147 16.568 7.53447 16.8308 7.08147C16.9259 6.91467 17.063 6.75957 17.2421 6.61647C17.4212 6.47307 17.5997 6.38397 17.7785 6.34797C17.9573 6.31227 18.1184 6.34257 18.2615 6.43737C18.4043 6.53307 18.4874 6.72357 18.5117 7.01007C18.5594 7.31997 18.4697 7.64787 18.2435 7.99317C18.0167 8.33907 17.8322 8.63157 17.6891 8.86947C17.3789 9.34677 16.9859 9.96027 16.5092 10.7112C16.0319 11.4624 15.5075 12.1839 14.9354 12.8748C14.363 13.5669 13.7729 14.1687 13.1651 14.6811C12.557 15.1935 11.9786 15.4617 11.4305 15.4857C11.0729 15.5094 10.7387 15.4083 10.4291 15.1818C10.1189 14.955 9.83301 14.6631 9.57081 14.3055C9.30831 13.9479 9.08181 13.5606 8.89131 13.1433C8.70021 12.7263 8.55741 12.315 8.46201 11.9097L7.96161 12.6963C7.62741 13.197 7.24011 13.7037 6.79911 14.2161C6.35781 14.7291 5.83911 15.1041 5.24361 15.3426C4.71891 15.5574 4.21791 15.6048 3.74151 15.4857C3.26421 15.3663 2.82321 15.1461 2.41791 14.8239C2.01261 14.5023 1.65471 14.115 1.34541 13.6617C1.03521 13.2093 0.784711 12.7677 0.594211 12.3384C0.165211 11.337 -0.0315886 10.3536 0.00411139 9.38787C0.0401114 8.42247 0.224911 7.43877 0.558511 6.43737C0.820711 5.62737 1.16031 4.85847 1.57761 4.13097C1.99461 3.40377 2.50161 2.73057 3.09771 2.11047C3.55011 1.63377 4.07511 1.22247 4.67121 0.876273C5.26701 0.530973 5.88741 0.286173 6.53091 0.143373C7.17471 -2.71152e-05 7.83621 -0.0357271 8.51571 0.0356729C9.19551 0.107373 9.84471 0.322173 10.4648 0.679773C10.703 0.822873 10.9118 1.01367 11.0909 1.25187C11.2697 1.49037 11.4182 1.75257 11.5379 2.03847C11.657 1.84797 11.7881 1.65777 11.9312 1.46637C12.0743 1.27587 12.2411 1.10877 12.4319 0.965673C12.8612 0.632373 13.3136 0.495273 13.7909 0.554373C14.2676 0.614073 14.6789 0.793173 15.0245 1.09107C15.3701 1.38927 15.6026 1.77057 15.7223 2.23527C15.8411 2.70027 15.758 3.17157 15.4721 3.64797" transform="translate(40.501858 25.227957)" id="Fill-19" fill="#8277FF" fill-rule="evenodd" stroke="none" />
    <path d="M8.0109 8.9052C8.2257 8.2614 8.4639 7.6299 8.7261 7.0098C8.9886 6.39 9.2388 5.7702 9.4776 5.1498C9.5487 4.9356 9.6501 4.6671 9.7812 4.3452C9.912 4.0236 10.0257 3.7014 10.1211 3.3798C10.2162 3.0579 10.2759 2.7663 10.2999 2.5035C10.3233 2.2413 10.2876 2.0508 10.1925 1.9314C10.0497 1.7646 9.8109 1.8003 9.4776 2.0385C9.1431 2.277 8.7738 2.6286 8.3685 3.0936C7.9629 3.5586 7.5336 4.0893 7.0812 4.6851C6.6279 5.2812 6.2106 5.8599 5.8296 6.4197C5.4477 6.9801 5.1198 7.4745 4.8459 7.9038C4.5717 8.3331 4.4106 8.5956 4.3632 8.6907C3.9573 9.3825 3.5406 10.0914 3.1116 10.8186C2.6823 11.5461 2.3481 12.291 2.1102 13.0536C2.0385 13.2924 1.9671 13.5606 1.8954 13.8585C1.824 14.1567 1.7346 14.4189 1.6275 14.6451C1.5198 14.8716 1.377 15.0384 1.1982 15.1461C1.0191 15.2532 0.7992 15.2355 0.5367 15.0921C0.3219 14.9967 0.1788 14.8239 0.1074 14.5737C0.0357 14.3235 0 14.0433 0 13.7331C0 13.4238 0.018 13.125 0.0537 12.8391C0.0894 12.5529 0.1074 12.3267 0.1074 12.1599C0.2505 10.443 0.5007 8.7621 0.8583 7.1169C1.0248 6.3069 1.1922 5.4843 1.359 4.6491C1.5255 3.8148 1.7403 3.0165 2.0028 2.253C2.1459 1.824 2.4195 1.4307 2.8254 1.0731C3.2304 0.7152 3.6711 0.513 4.1487 0.465C4.5297 0.4416 4.8816 0.507 5.2038 0.6615C5.5257 0.8172 5.7813 1.0371 5.9724 1.3236C6.1632 1.6095 6.282 1.9314 6.33 2.2887C6.378 2.6466 6.3177 3.0042 6.1515 3.3618C6.4134 3.0042 6.7236 2.6349 7.0812 2.253C7.4388 1.872 7.8198 1.5021 8.2257 1.1445C8.4639 0.93 8.7621 0.7332 9.1197 0.5544C9.4776 0.3756 9.8529 0.2385 10.2462 0.1431C10.6398 0.0483 11.0331 0 11.4267 0C11.8197 0 12.1713 0.0717 12.4812 0.2145C13.0296 0.5007 13.4292 0.8526 13.6797 1.2696C13.9299 1.6869 14.1741 2.1342 14.4129 2.6109C16.0335 0.7035 17.643 -0.1548 19.2408 0.036C19.527 0.084 19.7826 0.1968 20.0097 0.3756C20.2359 0.5544 20.439 0.7749 20.6175 1.0371C20.7963 1.2996 20.9394 1.5738 21.0468 1.86C21.1542 2.1459 21.231 2.3964 21.2793 2.6109C21.4221 3.4458 21.3924 4.3218 21.1899 5.2395C20.9871 6.1575 20.6769 7.0455 20.2602 7.9038C19.8423 8.7621 19.3596 9.5667 18.8115 10.3179C18.2628 11.0688 17.703 11.6946 17.1306 12.1953C16.9878 12.291 16.8267 12.4581 16.6479 12.6963C16.4688 12.9348 16.3377 13.143 16.2546 13.3221C16.1706 13.5006 16.1829 13.614 16.2903 13.6614C16.3974 13.7097 16.6776 13.59 17.1306 13.3041C17.5833 13.0179 18.0786 12.6126 18.615 12.0879C19.1514 11.5638 19.6755 10.9974 20.1885 10.3893C20.7009 9.7815 21.1659 9.1794 21.5832 8.5833C22.0002 7.9875 22.3401 7.4868 22.6026 7.0812C22.7454 6.8433 22.9065 6.5985 23.0853 6.3483C23.2641 6.0978 23.52 6.0084 23.8542 6.0798C24.0924 6.1278 24.2592 6.2172 24.3549 6.3483C24.45 6.4794 24.492 6.6285 24.48 6.795C24.4677 6.9621 24.4266 7.1349 24.3549 7.3137C24.2832 7.4925 24.2121 7.6533 24.1404 7.7964C23.6631 8.5599 23.1327 9.2868 22.5489 9.978C21.9645 10.6698 21.3624 11.3493 20.7426 12.0165C20.4327 12.3507 20.0991 12.6903 19.7418 13.0359C19.3836 13.3818 19.014 13.7037 18.6327 14.0013C18.2511 14.2998 17.8515 14.5674 17.4345 14.8062C17.0172 15.0441 16.5819 15.1995 16.1295 15.2712C15.6045 15.366 15.1815 15.3069 14.8596 15.0921C14.538 14.8776 14.2992 14.5854 14.1441 14.2161C13.989 13.8468 13.8996 13.4355 13.8762 12.9822C13.8522 12.5295 13.8762 12.1119 13.9479 11.7306C14.1384 10.5861 14.49 9.5433 15.0027 8.601C15.5151 7.6596 16.0812 6.6999 16.7016 5.7222C16.7964 5.5791 16.9518 5.3289 17.1666 4.9713C17.3808 4.6134 17.5779 4.2378 17.7564 3.8448C17.9355 3.4512 18.0606 3.0702 18.132 2.7C18.2037 2.331 18.1437 2.0508 17.9532 1.86C17.8575 1.7646 17.6493 1.8303 17.3274 2.0565C17.0052 2.2833 16.6659 2.5572 16.308 2.8791C15.9504 3.2007 15.6225 3.5112 15.3246 3.8091C15.0264 4.1073 14.8536 4.2918 14.8059 4.3632C14.1624 5.0784 13.5546 5.8179 12.9822 6.5805C12.4098 7.344 11.8494 8.1066 11.3013 8.8695C10.848 9.513 10.4127 10.1745 9.996 10.8543C9.5784 11.5338 9.2031 12.2196 8.8692 12.9108C8.7498 13.1016 8.6487 13.3461 8.5656 13.6437C8.4813 13.9422 8.3445 14.1621 8.154 14.3055C7.9629 14.496 7.7367 14.5614 7.4748 14.502C7.212 14.4429 7.0332 14.3055 6.9381 14.0907C6.8424 13.8528 6.8307 13.4889 6.9024 12.9999C6.9738 12.5115 7.0812 11.9988 7.2243 11.4621C7.3671 10.9257 7.5159 10.4196 7.6713 9.9423C7.8261 9.4656 7.9395 9.1197 8.0109 8.9052" transform="translate(56.48835 25.4784)" id="Fill-21" fill="#8277FF" fill-rule="evenodd" stroke="none" />
    <path d="M0 7.65718C0 7.65718 0.1875 7.53328 0.5517 7.32088C0.9183 7.11358 1.4532 6.79948 2.1585 6.44908C2.8623 6.09598 3.7212 5.66938 4.7331 5.24248C5.2359 5.01958 5.7789 4.80418 6.3492 4.56748C6.924 4.34578 7.5297 4.11208 8.1693 3.89098C9.4419 3.42688 10.8423 2.98528 12.3375 2.56498C13.8366 2.16178 15.423 1.73848 17.0889 1.41808C18.7503 1.07428 20.4825 0.793182 22.2507 0.567882C23.1366 0.471882 24.0267 0.343182 24.927 0.283482C25.3764 0.246582 25.827 0.209682 26.2779 0.173082C26.7291 0.140382 27.1815 0.121782 27.6336 0.0956825C28.086 0.0758825 28.5378 0.0473825 28.9902 0.0371825C29.4423 0.0287825 29.8941 0.0206825 30.345 0.0122825C31.2468 -0.0186175 32.1453 0.0170825 33.0363 0.0290825C33.9276 0.0305825 34.8102 0.101382 35.6817 0.144882C36.5541 0.180282 37.4121 0.279583 38.2566 0.353082C39.1014 0.422982 39.9279 0.538482 40.7364 0.647382C41.1399 0.705283 41.5404 0.750282 41.9337 0.817183C42.3261 0.883783 42.7143 0.949483 43.0971 1.01428C44.6319 1.24528 46.0614 1.58908 47.3814 1.87588C48.6918 2.21428 49.8972 2.49628 50.9424 2.83588C51.9912 3.16018 52.9077 3.42568 53.6448 3.70558C54.387 3.96718 54.963 4.19098 55.3581 4.33558C55.7511 4.48528 55.9608 4.56508 55.9608 4.56508C55.9608 4.56508 55.7394 4.52578 55.3248 4.45138C54.9117 4.37158 54.303 4.26628 53.5374 4.10938C53.3457 4.07128 53.1435 4.03078 52.932 3.98848C52.7184 3.95338 52.4952 3.91678 52.2624 3.87868C51.7962 3.80578 51.2967 3.71128 50.7612 3.61858C50.4939 3.57178 50.2179 3.52378 49.9338 3.47398C49.6479 3.43348 49.3539 3.39208 49.0521 3.34948C48.4509 3.25798 47.8191 3.16168 47.16 3.06118C46.4982 2.98078 45.8091 2.89768 45.0957 2.81128C44.3847 2.71438 43.6467 2.64118 42.888 2.56798C42.5094 2.53018 42.1251 2.49178 41.7366 2.45308C41.3481 2.41408 40.9521 2.39728 40.5537 2.36788C39.7554 2.32408 38.9448 2.23258 38.115 2.21038C36.4587 2.12038 34.7466 2.07448 33.0075 2.06608C32.1378 2.07028 31.2615 2.06308 30.3822 2.09398C29.9427 2.10478 29.502 2.11588 29.061 2.12698C28.6203 2.13958 28.1796 2.17258 27.7386 2.19238C27.2979 2.21488 26.8563 2.22988 26.4162 2.25838C25.9764 2.29108 25.5369 2.32438 25.0983 2.35708C24.2202 2.41378 23.3493 2.50948 22.4832 2.58838C22.0497 2.62348 21.6213 2.68948 21.1929 2.73568C20.7648 2.78668 20.3379 2.82898 19.9155 2.88598C19.0722 3.01048 18.2346 3.10858 17.4171 3.24568C17.0073 3.31048 16.6014 3.37468 16.1991 3.43828C15.7977 3.50878 15.4002 3.57868 15.0072 3.64798C14.2179 3.77488 13.4544 3.94138 12.7059 4.08268C11.9625 4.24438 11.2371 4.39798 10.5387 4.56028C10.1886 4.63948 9.8448 4.71748 9.507 4.79428C9.171 4.87768 8.8413 4.95958 8.5182 5.03938C7.2282 5.36968 6.0462 5.68618 5.0058 5.99428C3.9654 6.30238 3.0606 6.58558 2.319 6.83218C0.8358 7.32568 0 7.65718 0 7.65718" transform="translate(21.26862 45.339016)" id="Fill-23" fill="#8277FF" fill-rule="evenodd" stroke="none" />
  </g>
</svg>