<?xml version="1.0" encoding="utf-8"?>
<svg width="197px" height="216px" viewBox="0 0 197 216" version="1.1" xmlns:xlink="http://www.w3.org/1999/xlink" xmlns="http://www.w3.org/2000/svg">
  <g id="Illustration">
    <path d="M81.7004 7.40466L81.7004 172.173C81.6963 176.26 78.3827 179.571 74.2957 179.572L7.40466 179.572C5.44065 179.576 3.55602 178.798 2.16678 177.409C0.777535 176.021 -0.00208716 174.137 4.19676e-06 172.173L4.19676e-06 7.40466C-0.000165719 5.44077 0.779911 3.55727 2.16859 2.16859C3.55727 0.779907 5.44077 -0.000169568 7.40466 3.47872e-07L17.4148 3.47872e-07L17.4148 1.28368C17.4144 4.65075 20.1433 7.3808 23.5104 7.38178L57.5316 7.38178C58.8331 7.38456 60.1008 6.96735 61.1463 6.19215C61.3576 6.03843 61.558 5.87026 61.7462 5.68885C62.9496 4.53975 63.6294 2.94761 63.6272 1.28368L63.6272 3.47872e-07L74.2957 3.47872e-07C76.2597 -0.000601339 78.1435 0.779337 79.5322 2.16811C80.921 3.55688 81.701 5.44064 81.7004 7.40466Z" transform="translate(77.289345 7.941113)" id="Path" fill="#ECE8FF" fill-rule="evenodd" stroke="none" />
    <path d="M14.489 28.9781C22.4911 28.9781 28.9781 22.4911 28.9781 14.489C28.9781 6.48696 22.4911 0 14.489 0C6.48696 0 0 6.48696 0 14.489C0 22.4911 6.48696 28.9781 14.489 28.9781Z" transform="translate(105.54138 96.44747)" id="Oval" fill="#5BD3A0" fill-rule="evenodd" stroke="none" />
    <path d="M86.2441 197.254L8.82429 197.254C7.08084 197.26 5.37205 196.767 3.89842 195.836C1.49731 194.34 0.026876 191.721 0 188.893L0 8.36704C0 3.75345 3.95862 5.08387e-06 8.82429 5.08387e-06L27.0191 5.08387e-06L27.0191 1.66058C27.0191 5.20452 30.0699 8.08778 33.8199 8.08778L59.4697 8.08778C60.9132 8.09578 62.3236 7.65655 63.5073 6.83046C65.2098 5.65506 66.2392 3.72919 66.2705 1.66058L66.2705 0L86.2441 0C91.1098 0 95.0684 3.75345 95.0684 8.36703L95.0684 188.893C95.054 191.377 93.9106 193.72 91.9612 195.259C90.3393 196.558 88.3217 197.262 86.2441 197.254ZM8.82429 0.508387C4.23888 0.508387 0.508387 4.03383 0.508387 8.36703L0.508387 188.893C0.535564 191.548 1.91738 194.005 4.17197 195.407C5.56388 196.287 7.17778 196.751 8.82429 196.746L86.2441 196.746C88.2054 196.754 90.1102 196.09 91.6415 194.864C93.4712 193.421 94.5452 191.223 94.56 188.893L94.56 8.36704C94.56 4.03383 90.8295 0.508392 86.2441 0.508392L66.7789 0.508392L66.7789 1.66058C66.7475 3.89592 65.6364 5.97789 63.7969 7.24824C62.5283 8.13364 61.0167 8.60451 59.4697 8.59616L33.8199 8.59616C29.7895 8.59616 26.5107 5.4849 26.5107 1.66058L26.5107 0.508387L8.82429 0.508387Z" transform="translate(70.20415 0)" id="Shape" fill="#3F3D56" stroke="none" />
    <path d="M44.7068 48.1347L0 48.1347L0 0L44.7068 0L44.7068 48.1347ZM0.573181 47.5615L44.1336 47.5615L44.1336 0.573184L0.573181 0.573184L0.573181 47.5615Z" transform="translate(97.42686 87.042114)" id="Shape" fill="#3F3D56" stroke="none" />
    <path d="M0 0L29.3509 0L29.3509 0.573181L0 0.573181L0 0Z" transform="translate(103.03586 45.601936)" id="Rectangle" fill="#3F3D56" stroke="none" />
    <path d="M0 0L29.3509 0L29.3509 0.573181L0 0.573181L0 0Z" transform="translate(103.03586 53.403976)" id="Rectangle" fill="#3F3D56" stroke="none" />
    <path d="M0 0L29.3509 0L29.3509 0.573181L0 0.573181L0 0Z" transform="translate(103.03586 61.20602)" id="Rectangle" fill="#3F3D56" stroke="none" />
    <path d="M10.8541 19.3656L10.5813 19.2634C10.5213 19.2408 4.55473 16.9548 1.75971 11.7713C-1.03542 6.58769 0.333227 0.346539 0.347378 0.284232L0.411793 0L0.684481 0.102275C0.74443 0.124862 6.7109 2.41086 9.50604 7.59428C12.3012 12.7779 10.9325 19.0191 10.9184 19.0814L10.8541 19.3656ZM2.20729 11.5301C4.57037 15.9127 9.28537 18.1592 10.48 18.6721C10.7071 17.3917 11.4194 12.214 9.05848 7.83557C6.69776 3.45768 1.9809 1.20767 0.78577 0.693577C0.558501 1.97472 -0.153564 7.15193 2.20729 11.5301Z" transform="translate(7.336644 177.44803)" id="Shape" fill="#3F3D56" stroke="none" />
    <path d="M11.2324 2.11546C16.2554 5.13747 18.1899 11.14 18.1899 11.14C18.1899 11.14 11.9805 12.2429 6.95753 9.2209C1.93452 6.19889 0 0.196348 0 0.196348C0 0.196348 6.20938 -0.906549 11.2324 2.11546Z" transform="translate(2.5419354E-06 185.28564)" id="Path" fill="#5BD3A0" fill-rule="evenodd" stroke="none" />
    <path d="M0 1.39654L0.465683 9.07725L3.02592 11.8703L8.37924 7.91355L4.88789 0L0 1.39654L0 1.39654Z" transform="translate(179.90549 194.90163)" id="Path" fill="#A0616A" stroke="none" />
    <path d="M8.37904 4.70874C8.37904 4.70874 8.48252 3.15731 8.66353 0.209001C8.66353 0.209001 16.5253 -1.3428 16.0598 4.01047C15.5943 9.36373 11.6376 11.2257 11.6376 11.2257C11.6376 11.2257 9.77555 10.993 10.0083 12.855C10.241 14.717 3.25852 18.6738 0 14.9498L2.00355 3.19583C2.00355 3.19583 4.18953 4.70872 4.88778 4.01046C5.58603 3.31221 8.37904 4.70874 8.37904 4.70874Z" transform="translate(177.81082 198.80467)" id="Path" fill="#2F2E41" stroke="none" />
    <path d="M7.44813 0L13.9651 13.7323L2.24834 16.9301L0 4.42221L7.44813 0L7.44813 0Z" transform="translate(165.58727 51.177803)" id="Path" fill="#A0616A" stroke="none" />
    <path d="M9.07729 18.1546C14.0905 18.1546 18.1546 14.0905 18.1546 9.07729C18.1546 4.06404 14.0905 0 9.07729 0C4.06404 0 0 4.06404 0 9.07729C0 14.0905 4.06404 18.1546 9.07729 18.1546Z" transform="translate(157.20825 40.703983)" id="Oval" fill="#A0616A" stroke="none" />
    <path d="M18.3946 17.7266C17.5703 17.6774 16.7655 17.956 15.947 18.0646C13.0185 18.4534 9.97204 16.3284 9.32543 13.4459C9.27361 13.062 9.1592 12.6893 8.98676 12.3424C8.53606 11.6066 7.50961 11.4663 6.66343 11.6355C5.81726 11.8047 5.01519 12.2007 4.15346 12.2459C2.82293 12.3157 1.54557 11.4966 0.836488 10.3686C0.12741 9.24061 -0.0733695 7.85262 0.0223573 6.52371L0.6602 7.19315C0.919383 6.64483 1.01945 6.03477 0.949012 5.43238C1.63635 5.24932 2.36943 5.4369 2.88437 5.9276C3.4468 5.98745 3.02232 4.88439 3.44017 4.50318C3.61513 4.34355 3.88339 4.37368 4.12022 4.37596C5.31671 4.3875 6.28462 3.47233 7.22749 2.73561C8.86114 1.46199 10.7715 0.590585 12.8042 0.191843C14.1553 -0.0716771 15.592 -0.114026 16.8733 0.389082C17.9256 0.802258 18.8064 1.55479 19.6213 2.33835C21.6273 4.26727 23.4036 6.53369 24.2382 9.18857C24.9166 11.3631 24.9359 13.6899 24.2934 15.8754C23.9571 17.0104 22.9437 20.8974 21.46 20.9879C19.5958 21.1016 20.715 17.8651 18.3946 17.7266Z" transform="translate(153.83336 35.94941)" id="Path" fill="#2F2E41" stroke="none" />
    <path d="M8.37898 1.39654L7.91355 9.07725L5.35332 11.8703L0 7.91355L3.49135 0L8.37898 1.39654L8.37898 1.39654Z" transform="translate(152.43681 194.90163)" id="Path" fill="#A0616A" stroke="none" />
    <path d="M8.21803 6.37617C8.21803 6.37617 9.38179 -2.23562 20.5538 0.557395C31.7259 3.35041 32.8897 5.91067 32.8897 5.91067C32.8897 5.91067 33.1224 8.23818 33.8207 8.47093C34.5189 8.70369 36.3809 9.86744 35.4499 10.5657C34.5189 11.2639 39.6394 18.2465 39.6394 18.2465C39.6394 18.2465 42.6652 20.1085 40.8032 28.953C38.9412 37.7976 36.8464 50.5989 36.8464 50.5989C36.8464 50.5989 37.5447 54.7884 36.6137 57.1159C35.6827 59.4434 37.5447 61.0727 37.5447 62.0037C37.5447 62.9347 37.0792 67.5897 37.0792 67.5897C37.0792 67.5897 5.42501 66.426 1.00275 67.5897C-3.41952 68.7535 8.21803 6.37617 8.21803 6.37617Z" transform="translate(155.50725 57.13742)" id="Path" fill="#8870FF" fill-rule="evenodd" stroke="none" />
    <path d="M39.1069 1.13789C39.1069 1.13789 40.969 5.56017 39.1069 12.7755C37.2449 19.9907 36.7794 38.1453 36.7794 38.1453C36.7794 38.1453 36.7794 73.2907 35.1502 75.1528C33.5209 77.0148 33.9864 80.0405 33.9864 80.0405L27.0039 80.0405C27.0039 80.0405 27.2366 76.3165 26.3056 74.2217C25.3746 72.127 25.6074 49.5501 25.6074 49.5501L21.6506 17.896L13.7371 47.9209C13.7371 47.9209 10.7113 70.265 9.54755 71.196C8.38379 72.127 9.54755 75.851 9.54755 75.851C7.15555 76.2094 4.71147 75.8021 2.56501 74.6872L2.56501 70.9632C2.56501 70.9632 -0.926255 69.5667 0.237501 64.4462C1.40126 59.3257 0.935753 3.69816 4.42702 1.13789C7.91829 -1.42237 39.1069 1.13789 39.1069 1.13789Z" transform="translate(152.43211 121.61086)" id="Path" fill="#2F2E41" stroke="none" />
    <path d="M7.70067 4.70874C7.70067 4.70874 7.59719 3.15731 7.41618 0.209001C7.41618 0.209001 -0.445617 -1.3428 0.0198852 4.01047C0.485387 9.36373 4.44216 11.2257 4.44216 11.2257C4.44216 11.2257 6.30417 10.993 6.07141 12.855C5.83866 14.717 12.8212 18.6738 16.0797 14.9498L14.0762 3.19583C14.0762 3.19583 11.8902 4.70872 11.1919 4.01046C10.4937 3.31221 7.70067 4.70874 7.70067 4.70874Z" transform="translate(146.83095 198.80467)" id="Path" fill="#2F2E41" stroke="none" />
    <path d="M4.87328 0L4.17502 3.25851C4.17502 3.25851 -4.20402 16.5253 2.77852 17.9218C9.76105 19.3183 9.29555 5.12052 9.29555 5.12052L9.9938 2.09475L4.87328 0Z" transform="translate(146.5162 123.563385)" id="Path" fill="#A0616A" stroke="none" />
    <path d="M9.0773 1.26157C9.0773 1.26157 13.9651 -1.99694 16.2926 1.95982C18.6201 5.91658 20.9476 14.9939 20.9476 14.9939L17.9218 37.1052L6.74978 62.7079L0 60.1476C0 60.1476 1.16376 56.8891 0.698252 55.4926C0.232747 54.0961 2.56026 50.6048 2.56026 50.6048L4.88777 32.4502C4.88777 32.4502 5.81878 1.49431 9.0773 1.26157Z" transform="translate(150.57484 64.230415)" id="Path" fill="#8870FF" fill-rule="evenodd" stroke="none" />
    <path d="M11.1721 0L3.49135 27.6974L0 26.3009L11.1721 0L11.1721 0Z" transform="translate(157.20828 100.75368)" id="Path" fill="#000000" fill-opacity="0.1" stroke="none" />
    <path d="M22.918 7.97026C24.8115 7.9785 26.6987 7.75112 28.5361 7.29337L28.422 6.84218C24.075 7.94218 19.1595 7.67158 13.8123 6.03675C9.05479 4.58229 4.56047 2.25273 0.214112 0L0 0.413225C4.36476 2.67561 8.87818 5.01506 13.6764 6.48203C16.6663 7.43287 19.7808 7.93442 22.918 7.97026Z" transform="translate(163.50777 63.85146)" id="Path" fill="#000000" fill-opacity="0.1" stroke="none" />
    <path d="M0 0L44.2297 0L44.2297 47.5342L0 47.5342L0 0Z" transform="translate(67.92074 127.45908)" id="Rectangle" fill="#8870FF" fill-rule="evenodd" stroke="none" />
    <path d="M32.1254 8.52988C29.1453 1.4984 21.5594 0.17044 21.5594 0.17044C21.5594 0.17044 14.2552 -1.77815 8.15527 7.50193C2.46963 16.1517 -4.86234 24.2558 4.43606 27.7084L6.89224 22.55L7.18689 28.4865C8.53901 28.7681 9.90553 28.9754 11.2803 29.1077C21.594 30.1554 31.3163 31.8976 31.4964 28.1703C31.7358 23.2153 34.9928 15.2956 32.1254 8.52988Z" transform="translate(27.741446 42.55844)" id="Path" fill="#2F2E41" stroke="none" />
    <path d="M4.19489 0L3.53124 16.9232C3.53124 16.9232 -3.43715 30.5282 2.20393 30.1964C7.845 29.8645 7.18135 16.9232 7.18135 16.9232L9.17231 0.995485L4.19489 0Z" transform="translate(24.205853 107.397835)" id="Path" fill="#FFB8B8" stroke="none" />
    <path d="M6.30473 0L8.2957 16.9232C8.2957 16.9232 14.2686 25.8826 9.62301 28.869C4.97742 31.8555 4.97742 18.2505 4.97742 18.2505L0 0.995493L6.30473 0Z" transform="translate(60.256237 104.411385)" id="Path" fill="#FFB8B8" stroke="none" />
    <path d="M18.9142 3.31828L12.9413 26.5462C12.9413 26.5462 10.2867 35.8374 6.63656 40.483L5.30925 43.1376L0 42.474L3.65011 27.5417L5.97291 0L18.9142 3.31828Z" transform="translate(40.678383 132.61678)" id="Path" fill="#FFB8B8" stroke="none" />
    <path d="M18.9142 3.31828L12.9413 26.5462C12.9413 26.5462 10.2867 35.8374 6.63656 40.483L5.30925 43.1376L0 42.474L3.65011 27.5417L5.97291 0L18.9142 3.31828Z" transform="translate(40.678383 132.61678)" id="Path" fill="#000000" fill-opacity="0.1" stroke="none" />
    <path d="M10.6339 0L19.7086 2.10114L15.9686 10.9178C15.9686 10.9178 17.4887 16.196 16.0407 18.9912C14.5927 21.7864 14.8016 26.8581 14.8016 26.8581L12.8349 26.5483C12.8349 26.5483 8.05983 35.5379 2.41778 32.9697C-3.22426 30.4014 2.77673 24.2923 2.77673 24.2923C2.77673 24.2923 7.65505 14.6472 8.27457 10.7137C8.8941 6.78026 10.6339 0 10.6339 0Z" transform="translate(28.731026 171.38612)" id="Path" fill="#2F2E41" stroke="none" />
    <path d="M10.6339 0L19.7086 2.10114L15.9686 10.9178C15.9686 10.9178 17.4887 16.196 16.0407 18.9912C14.5927 21.7864 14.8016 26.8581 14.8016 26.8581L12.8349 26.5483C12.8349 26.5483 8.05983 35.5379 2.41778 32.9697C-3.22426 30.4014 2.77673 24.2923 2.77673 24.2923C2.77673 24.2923 7.65505 14.6472 8.27457 10.7137C8.8941 6.78026 10.6339 0 10.6339 0Z" transform="translate(28.731026 171.38612)" id="Path" fill="#000000" fill-opacity="0.1" stroke="none" />
    <path d="M0 0L4.97743 24.8871C4.97743 24.8871 3.31829 37.1647 5.30926 44.7968L7.30023 52.097L13.9368 52.097L13.9368 25.2189C13.9368 25.2189 14.2686 3.31828 13.2731 1.65914C12.2776 -2.54194e-06 0 0 0 0Z" transform="translate(31.719019 130.95763)" id="Path" fill="#FFB8B8" stroke="none" />
    <path d="M9.29118 0L0 0.663656L2.3228 9.95484C2.3228 9.95484 0 14.9323 0.995483 17.9187C1.99097 20.9052 0.995483 25.8826 0.995483 25.8826L2.98645 25.8826C2.98645 25.8826 6.30473 35.5056 12.2776 33.8465C18.2505 32.1874 13.2731 25.219 13.2731 25.219C13.2731 25.219 9.95484 14.9323 9.95484 10.9504C9.95484 6.96842 9.29118 0 9.29118 0Z" transform="translate(37.691933 180.40001)" id="Path" fill="#2F2E41" stroke="none" />
    <path d="M8.95936 17.9187C13.9075 17.9187 17.9187 13.9075 17.9187 8.95936C17.9187 4.01124 13.9075 0 8.95936 0C4.01124 0 0 4.01124 0 8.95936C0 13.9075 4.01124 17.9187 8.95936 17.9187Z" transform="translate(40.346554 47.668785)" id="Oval" fill="#FFB8B8" stroke="none" />
    <path d="M1.5457 0C1.5457 0 2.20935 11.2822 0.218384 11.9458C-1.77258 12.6095 10.5051 11.9458 10.5051 11.9458C10.5051 11.9458 8.84591 4.97742 10.5051 2.98645C12.1642 0.995483 1.5457 0 1.5457 0Z" transform="translate(41.621395 60.11234)" id="Path" fill="#FFB8B8" stroke="none" />
    <path d="M16.5914 0.294958C16.5914 0.294958 7.96387 -0.368698 6.30473 0.294958C4.6456 0.958614 0 4.2769 0 4.2769L2.3228 25.1821L21.237 29.164L24.2234 24.8502L27.2099 18.5455L25.8826 10.5816L25.5508 5.93602L16.5914 0.294958Z" transform="translate(35.700962 69.93814)" id="Path" fill="#D0CDE1" stroke="none" />
    <path d="M6.30473 0C6.30473 0 1.99097 0.995485 1.65914 4.31377C1.32731 7.63205 1.32731 15.9277 1.65914 17.2551C1.99097 18.5824 1.65914 19.246 1.32731 19.5779C0.995485 19.9097 0.331827 19.246 0.995483 20.2415C1.65914 21.237 1.65914 21.237 1.32731 22.2325C0.995485 23.228 0 21.9006 0.663656 23.5598C1.32731 25.2189 1.65914 25.5508 1.32731 25.8826C0.995485 26.2144 0 33.8465 0 33.8465L5.64106 34.842L11.2821 15.2641L6.30473 0Z" transform="translate(27.73709 75.54234)" id="Path" fill="#D0CDE1" stroke="none" />
    <path d="M2.32281 0C3.60614 0.0716104 4.74957 0.833897 5.30926 1.99097C6.30474 3.98194 8.95937 16.9232 8.62754 17.9187C8.29571 18.9142 7.63205 17.5869 8.29571 19.5779C8.95937 21.5688 8.29571 21.237 8.62754 22.5643C8.95937 23.8916 7.30023 22.5643 8.62754 23.8916C9.95485 25.2189 10.6185 25.5508 9.95485 26.2144C9.2912 26.8781 8.29571 25.5508 9.2912 26.8781C10.2867 28.2054 10.2867 30.1964 10.2867 30.1964L2.3228 31.8555L0 13.2731L2.32281 0Z" transform="translate(57.601604 75.54234)" id="Path" fill="#D0CDE1" stroke="none" />
    <path d="M6.9251 0.962387L8.55525 0.14732C8.88817 -0.0191429 9.2738 -0.0456946 9.6264 0.0735687C9.979 0.192832 10.2693 0.448025 10.4328 0.782405L17.9187 16.0905L26.2144 21.3997L32.1873 18.7451C32.1873 18.7451 36.5011 12.1085 35.1738 8.79025C34.2738 6.54043 33.2196 3.07888 32.634 1.08296C32.5637 0.842268 32.6515 0.583314 32.8538 0.435094C33.056 0.286873 33.3294 0.281085 33.5377 0.420614L34.6688 1.17463C35.0308 1.41597 35.2832 1.79019 35.3713 2.21626L37.8284 14.0995L34.5101 21.0679L34.5101 27.7044L36.8329 63.5419C36.8329 63.5419 28.2054 62.2146 19.5778 60.5554C10.9503 58.8963 0 57.569 0 57.569C0 57.569 5.64106 28.3681 10.2867 23.3907C10.2867 23.3907 10.2867 19.7406 10.9503 19.4087C11.614 19.0769 12.2776 16.7541 12.2776 16.7541L6.26702 2.76121C5.97525 2.08194 6.26388 1.293 6.9251 0.962387L6.9251 0.962387Z" transform="translate(26.077955 74.052315)" id="Path" fill="#8870FF" fill-rule="evenodd" stroke="none" />
    <path d="M20.2732 3.9822L12.6708 0L2.17208 1.62913L0 11.2226L5.40695 11.0147L6.91762 7.49007L6.91762 10.9568L9.41253 10.8607L10.8607 5.24935L11.7656 11.2226L20.6354 11.0417L20.2732 3.9822L20.2732 3.9822Z" transform="translate(37.908646 44.551487)" id="Path" fill="#2F2E41" stroke="none" />
    <path d="M0.995483 3.4842C1.54527 3.4842 1.99097 2.70423 1.99097 1.7421C1.99097 0.779964 1.54527 0 0.995483 0C0.445693 0 0 0.779964 0 1.7421C0 2.70423 0.445693 3.4842 0.995483 3.4842Z" transform="translate(39.185158 54.886044)" id="Oval" fill="#FFB8B8" stroke="none" />
    <path d="M14.7432 7.23257L7.51066 7.23257L7.51066 0L7.23257 0L7.23257 7.23257L0 7.23257L0 7.51091L7.23257 7.51091L7.23257 14.7432L7.51066 14.7432L7.51066 7.51091L14.7432 7.51091L14.7432 7.23257L14.7432 7.23257Z" transform="translate(112.40464 103.819)" id="Path" fill="#FFFFFF" fill-rule="evenodd" stroke="none" />
    <path d="M0 0L29.3509 0L29.3509 0.573181L0 0.573181L0 0Z" transform="translate(75.32876 141.6871)" id="Rectangle" fill="#F2F2F2" stroke="none" />
    <path d="M0 0L29.3509 0L29.3509 0.573181L0 0.573181L0 0Z" transform="translate(75.32876 149.48914)" id="Rectangle" fill="#F2F2F2" stroke="none" />
    <path d="M0 0L29.3509 0L29.3509 0.573181L0 0.573181L0 0Z" transform="translate(75.32876 157.29118)" id="Rectangle" fill="#F2F2F2" stroke="none" />
  </g>
</svg>