<?xml version="1.0" encoding="utf-8"?>
<svg width="199px" height="198px" viewBox="0 0 199 198" version="1.1" xmlns:xlink="http://www.w3.org/1999/xlink" xmlns="http://www.w3.org/2000/svg">
  <g id="Illustration" transform="translate(0.6999512 0.7001953)">
    <path d="M0 0C2.36453 1.24813 4.67587 2.52535 6.93402 3.83167" transform="translate(133.64308 52.666195)" id="Path" fill="none" fill-rule="evenodd" stroke="#2F2E41" stroke-width="1.4" />
    <path d="M0 0C10.3138 2.23018 21.5741 6.08012 32.9176 11.5136C41.1337 15.4229 48.9955 20.0371 56.4147 25.3043" transform="translate(89.64003 44.932446)" id="Path" fill="none" fill-rule="evenodd" stroke="#2F2E41" stroke-width="1.4" />
    <path d="M0 0.117365L105.754 0.117365" transform="translate(55.309574 195.31299)" id="Path" fill="none" fill-rule="evenodd" stroke="#3F3D56" stroke-width="1.4" />
    <path d="M0 0C3.09931 0.381057 6.32589 0.931669 9.65082 1.65063" transform="translate(79.989204 43.281826)" id="Path" fill="none" fill-rule="evenodd" stroke="#2F2E41" stroke-width="1.4" />
    <path d="M6.1061 32.9631C0.380102 24.5834 -1.58693 16.6662 1.35504 10.5242C4.60897 3.73096 13.319 0.255945 25.1258 0" transform="translate(43.552338 42.656517)" id="Path" fill="none" fill-rule="evenodd" stroke="#2F2E41" stroke-width="1.4" />
    <path d="M11.5855 0C16.3582 7.683 17.839 14.8861 15.1168 20.5692C12.7212 25.5705 7.36849 28.7732 0 30.217" transform="translate(158.65355 94.33605)" id="Path" fill="none" fill-rule="evenodd" stroke="#2F2E41" stroke-width="1.4" />
    <path d="M0 0C4.78301 3.39219 9.30406 7.1394 13.5249 11.2099" transform="translate(146.05478 70.23675)" id="Path" fill="none" fill-rule="evenodd" stroke="#2F2E41" stroke-width="1.4" />
    <path d="M0 1.30464C9.50469 -0.737282 21.8043 -0.374309 35.5601 2.33726" transform="translate(46.48802 31.531393)" id="Path" fill="none" fill-rule="evenodd" stroke="#2F2E41" stroke-width="1.4" />
    <path d="M0 0C4.25513 6.21563 6.87209 12.2305 7.55608 17.7081" transform="translate(184.82358 94.335175)" id="Path" fill="none" fill-rule="evenodd" stroke="#2F2E41" stroke-width="1.4" />
    <path d="M0 0C4.26807 2.46772 8.32885 5.01998 12.1824 7.6568" transform="translate(140.57712 56.49785)" id="Path" fill="none" fill-rule="evenodd" stroke="#2F2E41" stroke-width="1.4" />
    <path d="M5.51325 0C3.28701 0.125749 1.32304 1.49894 0.440663 3.54672C-0.827743 6.61277 0.805423 10.2143 3.2571 12.4501C5.70878 14.6859 8.85812 15.9639 11.7195 17.6436C15.5629 19.8999 19.0165 23.0319 20.9396 27.0524C22.8626 31.0728 23.0672 36.053 20.8067 39.8939C18.7086 43.4589 14.8936 45.5926 11.255 47.5604" transform="translate(141.18019 148.04782)" id="Path" fill="none" fill-rule="evenodd" stroke="#3F3D56" stroke-width="1.4" />
    <path d="M4.4811 4.35307C6.95594 4.35307 8.9622 3.3786 8.9622 2.17653C8.9622 0.974468 6.95594 0 4.4811 0C2.00626 0 0 0.974468 0 2.17653C0 3.3786 2.00626 4.35307 4.4811 4.35307Z" transform="translate(145.4437 146.13826)" id="Oval" fill="#5BD3A0" fill-rule="evenodd" stroke="none" />
    <path d="M4.4811 4.35307C6.95594 4.35307 8.9622 3.3786 8.9622 2.17653C8.9622 0.974468 6.95594 0 4.4811 0C2.00626 0 0 0.974468 0 2.17653C0 3.3786 2.00626 4.35307 4.4811 4.35307Z" transform="translate(149.02858 160.47778)" id="Oval" fill="#5BD3A0" fill-rule="evenodd" stroke="none" />
    <path d="M4.4811 4.35307C6.95594 4.35307 8.9622 3.3786 8.9622 2.17653C8.9622 0.974468 6.95594 0 4.4811 0C2.00626 0 0 0.974468 0 2.17653C0 3.3786 2.00626 4.35307 4.4811 4.35307Z" transform="translate(140.83456 162.78235)" id="Oval" fill="#5BD3A0" fill-rule="evenodd" stroke="none" />
    <path d="M4.4811 4.35307C6.95594 4.35307 8.9622 3.3786 8.9622 2.17653C8.9622 0.974468 6.95594 0 4.4811 0C2.00626 0 0 0.974468 0 2.17653C0 3.3786 2.00626 4.35307 4.4811 4.35307Z" transform="translate(153.63771 174.8173)" id="Oval" fill="#5BD3A0" fill-rule="evenodd" stroke="none" />
    <path d="M4.4811 4.35307C6.95594 4.35307 8.9622 3.3786 8.9622 2.17653C8.9622 0.974468 6.95594 0 4.4811 0C2.00626 0 0 0.974468 0 2.17653C0 3.3786 2.00626 4.35307 4.4811 4.35307Z" transform="translate(162.5999 174.8173)" id="Oval" fill="#5BD3A0" fill-rule="evenodd" stroke="none" />
    <path d="M4.06712 0L6.59154 0C6.59154 0 8.90559 17.8813 7.22265 19.5643C5.5397 21.2472 0.911591 22.2991 0.280489 19.5643C-0.350612 16.8295 0.280489 6.73179 0.280489 6.73179L4.06712 0Z" transform="translate(118.61283 63.529198)" id="Path" fill="#8870FF" fill-rule="evenodd" stroke="none" />
    <path d="M15.3569 35.973C23.8383 35.973 30.7138 27.9202 30.7138 17.9865C30.7138 8.05283 23.8383 0 15.3569 0C6.87552 0 0 8.05283 0 17.9865C0 27.9202 6.87552 35.973 15.3569 35.973Z" transform="translate(90.80913 29.975428)" id="Oval" fill="#2F2E41" stroke="none" />
    <path d="M2.34857 2.10369C2.34857 2.10369 3.19004 9.04584 0.665618 10.5184C-1.8588 11.991 3.61078 20.4057 3.61078 20.4057L10.1322 22.0887L14.5499 15.988L13.7085 9.67695C13.7085 9.67695 8.65963 4.62811 10.9737 0L2.34857 2.10369Z" transform="translate(100.346375 49.22414)" id="Path" fill="#FFC1C7" stroke="none" />
    <path d="M2.34857 2.10369C2.34857 2.10369 3.19004 9.04584 0.665618 10.5184C-1.8588 11.991 3.61078 20.4057 3.61078 20.4057L10.1322 22.0887L14.5499 15.988L13.7085 9.67695C13.7085 9.67695 8.65963 4.62811 10.9737 0L2.34857 2.10369Z" transform="translate(100.346375 49.22414)" id="Path" fill="#000000" fill-opacity="0.1" stroke="none" />
    <path d="M1.12197 2.31405C1.12197 2.31405 -1.40246 25.2442 1.12197 30.7138C3.64639 36.1834 10.3782 51.5403 10.3782 51.5403L8.27449 55.958L13.9544 54.6958L16.2685 50.2781C16.2685 50.2781 13.5337 39.5493 13.113 35.7626C12.6922 31.976 9.5367 25.0338 9.5367 25.0338L15.427 0L1.12197 2.31405Z" transform="translate(92.1064 124.372025)" id="Path" fill="#FFC1C7" stroke="none" />
    <path d="M0 2.94515C0 2.94515 0.210368 26.0857 1.68295 29.6752L0.841474 61.0201L5.46958 61.638C5.46958 61.638 12.2014 35.3419 11.1495 29.0309C10.0977 22.7198 11.3599 0 11.3599 0L0 2.94515Z" transform="translate(113.21336 119.90796)" id="Path" fill="#FFC1C7" stroke="none" />
    <path d="M7.994 15.988C12.409 15.988 15.988 12.409 15.988 7.994C15.988 3.57904 12.409 0 7.994 0C3.57904 0 0 3.57904 0 7.994C0 12.409 3.57904 15.988 7.994 15.988Z" transform="translate(98.17202 38.1798)" id="Oval" fill="#FFC1C7" stroke="none" />
    <path d="M43.4972 67.4106C43.4972 67.4106 37.8172 71.1972 35.5032 68.4624C33.1891 65.7276 4.7894 70.1454 1.21313 69.3039C-2.36315 68.4624 3.10644 54.9989 3.10644 48.0567C3.10644 42.8627 4.99133 34.9613 5.94011 31.3093C6.25987 30.0807 6.47235 29.3339 6.47235 29.3339C6.47235 29.3339 8.63073 23.1932 8.22684 20.6415C8.19948 20.4481 8.14641 20.2592 8.06906 20.0798C8.03538 20.0047 7.99377 19.9335 7.94493 19.8673C6.93725 18.5231 4.0489 8.71989 2.92764 4.51041C2.74464 3.88745 2.59367 3.25552 2.47535 2.6171C2.47535 1.98599 10.259 0.0926769 12.2049 0.00221884C14.1529 -0.0882369 14.6767 2.6171 14.6767 2.6171C15.3078 3.03783 18.253 10.4007 18.253 10.4007L20.9878 3.45858C20.9878 3.45858 20.7774 1.986 20.567 1.986C20.3567 1.986 23.6784 0.000117998 23.6784 0.000117998C23.6784 0.000117998 27.0885 2.40674 28.9818 1.986C30.8751 1.56526 35.2928 5.35189 35.2928 5.35189C35.2928 5.35189 27.5092 24.9162 30.6647 29.1235C33.8202 33.3309 43.4972 67.4106 43.4972 67.4106Z" transform="translate(89.91155 58.38768)" id="Path" fill="#8870FF" fill-rule="evenodd" stroke="none" />
    <path d="M16.849 0.0125382C16.849 0.0125382 13.2727 3.5888 13.2727 4.00953L10.3276 2.74732C10.3276 2.74732 9.06537 7.37542 8.855 8.00653C8.64463 8.63764 5.06837 14.3176 1.49211 16.842C-2.08416 19.3664 1.49211 22.522 4.64763 21.8909C7.80316 21.2597 15.7972 14.1072 15.7972 14.1072C15.7972 14.1072 21.2667 14.1072 23.1601 9.89985C23.1601 9.89986 18.1112 -0.408202 16.849 0.0125382Z" transform="translate(90.894775 173.79608)" id="Path" fill="#2F2E41" stroke="none" />
    <path d="M6.35698 1.83132C6.35698 1.83132 0.95269 -2.09533 0.604494 1.55094C0.256297 5.19721 0.256297 13.1912 0.256297 13.1912C0.256297 13.1912 -1.42665 18.4504 3.83256 17.8193C9.09177 17.1882 9.51251 15.7156 9.51251 15.7156L6.98809 5.61795L6.98809 1.20022L6.35698 1.83132Z" transform="translate(111.90523 178.04489)" id="Path" fill="#2F2E41" stroke="none" />
    <path d="M5.01728 15.3569C4.00961 14.0126 1.12125 4.20948 0 0L1.02028 0C1.02028 0 3.58257 10.0283 5.14141 15.5694C5.10773 15.4943 5.06612 15.4231 5.01728 15.3569Z" transform="translate(92.83919 62.898094)" id="Path" fill="#000000" fill-opacity="0.1" stroke="none" />
    <path d="M15.8891 13.1102C15.8891 13.1102 12.944 13.3205 2.21518 11.2168C1.46757 11.0733 0.728128 10.89 0 10.6678C0.319764 9.43923 0.532237 8.69243 0.532237 8.69243C0.532237 8.69243 2.69062 2.55177 2.28673 0C2.78949 1.76709 3.16395 2.95989 3.26703 3.01248C3.68776 3.22285 17.1513 5.5369 19.0447 6.37838C20.938 7.21985 15.8891 13.1102 15.8891 13.1102Z" transform="translate(95.851654 79.029144)" id="Path" fill="#000000" fill-opacity="0.1" stroke="none" />
    <path d="M0 0.260735C0 0.260735 5.80243 -0.455194 6.16193 0.485606C6.52142 1.42641 7.994 10.5188 8.62511 11.6845C9.25622 12.8502 9.46658 20.0775 6.94216 20.3106C4.41774 20.5438 1.05183 17.9792 1.68295 15.881C2.31406 13.7827 0 0.260735 0 0.260735Z" transform="translate(115.52741 64.34577)" id="Path" fill="#000000" fill-opacity="0.1" stroke="none" />
    <path d="M1.89332 0.639738C1.89332 0.639738 10.7288 1.69158 12.2014 0.639738C13.674 -0.412104 19.7746 -0.412104 18.5124 2.53305C17.2502 5.47821 6.31105 5.68858 6.31105 5.68858L0 5.68858L1.89332 0.639738Z" transform="translate(110.68895 83.295204)" id="Path" fill="#FFC1C7" stroke="none" />
    <path d="M4.06878 0L2.5962 0C2.5962 0 -0.348964 0.631106 0.0717788 9.88732C0.492522 19.1435 -2.45264 25.2442 8.27615 27.3479C19.0049 29.4516 21.9501 29.2412 21.9501 29.2412C21.9501 29.2412 26.9989 23.3509 25.1056 22.5094C23.2123 21.668 9.74873 19.3539 9.32798 19.1435C8.90723 18.9332 4.06878 0 4.06878 0Z" transform="translate(89.79069 61.425514)" id="Path" fill="#8870FF" fill-rule="evenodd" stroke="none" />
    <path d="M11.3056 13.8291C11.3056 13.8291 7.6194 0 4.67424 0C1.72909 0 -1.63681 0.631106 0.887611 3.3659C3.41203 6.10069 6.56756 9.04585 6.77794 10.5184C6.98832 11.991 7.82978 14.0947 7.82978 14.0947L11.3056 13.8291Z" transform="translate(110.22207 51.74856)" id="Path" fill="#FFC1C7" stroke="none" />
    <path d="M0 0.260735C0 0.260735 5.80243 -0.455194 6.16193 0.485606C6.52142 1.42641 7.994 10.5188 8.62511 11.6845C9.25622 12.8502 9.46658 20.0775 6.94216 20.3106C4.41774 20.5438 1.05183 17.9792 1.68295 15.881C2.31406 13.7827 0 0.260735 0 0.260735Z" transform="translate(116.3689 64.34577)" id="Path" fill="#8870FF" fill-rule="evenodd" stroke="none" />
    <path d="M7.57327 15.1465C11.7559 15.1465 15.1465 11.7559 15.1465 7.57327C15.1465 3.39067 11.7559 0 7.57327 0C3.39067 0 0 3.39067 0 7.57327C0 11.7559 3.39067 15.1465 7.57327 15.1465Z" transform="translate(96.489075 31.027267)" id="Oval" fill="#2F2E41" stroke="none" />
    <path d="M75.891 37.9734C64.1385 36.0365 50.8431 31.8259 37.4313 25.4017C22.1605 18.0871 9.22047 9.09142 0 0" transform="translate(58.688747 86.23829)" id="Path" fill="none" fill-rule="evenodd" stroke="#2F2E41" stroke-width="1.4" />
    <path d="M28.241 17.8082C17.7269 12.361 8.20824 6.30506 0 0" transform="translate(58.68833 97.78841)" id="Path" fill="none" fill-rule="evenodd" stroke="#2F2E41" stroke-width="1.4" />
    <path d="M12.6051 25.2102C19.5667 25.2102 25.2102 19.5667 25.2102 12.6051C25.2102 5.64349 19.5667 0 12.6051 0C5.64349 0 0 5.64349 0 12.6051C0 19.5667 5.64349 25.2102 12.6051 25.2102Z" transform="translate(0 5.2527695)" id="Oval" fill="#8870FF" fill-rule="evenodd" stroke="none" />
    <path d="M12.6051 25.2102C19.5667 25.2102 25.2102 19.5667 25.2102 12.6051C25.2102 5.64349 19.5667 0 12.6051 0C5.64349 0 0 5.64349 0 12.6051C0 19.5667 5.64349 25.2102 12.6051 25.2102Z" transform="translate(2.956748 0.11736527)" id="Oval" fill="none" fill-rule="evenodd" stroke="#2F2E41" stroke-width="1.4" />
    <path d="M7.33387 14.6677C11.3842 14.6677 14.6677 11.3842 14.6677 7.33387C14.6677 3.28348 11.3842 0 7.33387 0C3.28348 0 0 3.28348 0 7.33387C0 11.3842 3.28348 14.6677 7.33387 14.6677Z" transform="translate(180.5243 56.053654)" id="Oval" fill="#ECE8FF" fill-rule="evenodd" stroke="none" />
    <path d="M7.33387 14.6677C11.3842 14.6677 14.6677 11.3842 14.6677 7.33387C14.6677 3.28348 11.3842 0 7.33387 0C3.28348 0 0 3.28348 0 7.33387C0 11.3842 3.28348 14.6677 7.33387 14.6677Z" transform="translate(182.2446 53.065784)" id="Oval" fill="none" fill-rule="evenodd" stroke="#2F2E41" stroke-width="1.4" />
    <path d="M10.5424 21.0849C16.3649 21.0849 21.0849 16.3649 21.0849 10.5424C21.0849 4.72001 16.3649 0 10.5424 0C4.72001 0 0 4.72001 0 10.5424C0 16.3649 4.72001 21.0849 10.5424 21.0849Z" transform="translate(43.530685 129.29329)" id="Oval" fill="#ECE8FF" fill-rule="evenodd" stroke="none" />
    <path d="M10.5424 21.0849C16.3649 21.0849 21.0849 16.3649 21.0849 10.5424C21.0849 4.72001 16.3649 0 10.5424 0C4.72001 0 0 4.72001 0 10.5424C0 16.3649 4.72001 21.0849 10.5424 21.0849Z" transform="translate(46.0036 124.99822)" id="Oval" fill="none" fill-rule="evenodd" stroke="#2F2E41" stroke-width="1.4" />
  </g>
</svg>