<?xml version="1.0" encoding="utf-8"?>
<svg width="197px" height="174px" viewBox="0 0 197 174" version="1.1" xmlns:xlink="http://www.w3.org/1999/xlink" xmlns="http://www.w3.org/2000/svg">
  <g id="Illustration">
    <path d="M10.3881 18.5342L10.127 18.4363C10.0696 18.4147 4.35919 16.2269 1.68417 11.266C-0.990969 6.30486 0.318922 0.33166 0.332463 0.272027L0.394115 0L0.655095 0.0978815C0.71247 0.119502 6.42279 2.30736 9.09793 7.26825C11.7731 12.2294 10.4632 18.2026 10.4496 18.2622L10.3881 18.5342ZM2.11252 11.0351C4.37415 15.2295 8.88673 17.3796 10.0301 17.8705C10.2475 16.645 10.9292 11.6896 8.66958 7.4992C6.4102 3.30926 1.89585 1.15585 0.752028 0.663818C0.534525 1.88994 -0.14697 6.84488 2.11252 11.0351Z" transform="translate(177.00998 154.62447)" id="Shape" fill="#3F3D56" stroke="none" />
    <path d="M10.7502 2.02463C15.5575 4.9169 17.409 10.6617 17.409 10.6617C17.409 10.6617 11.4662 11.7173 6.65884 8.82503C1.85147 5.93276 0 0.187924 0 0.187924C0 0.187924 5.94281 -0.867639 10.7502 2.02463Z" transform="translate(169.9883 162.12561)" id="Path" fill="#5BD3A0" fill-rule="evenodd" stroke="none" />
    <path d="M0.486023 13.5834C0.957305 12.8546 1.71713 12.3614 2.57469 12.2278C3.43226 12.0941 4.30613 12.3326 4.97686 12.8835C5.08147 12.9701 5.17987 13.064 5.27132 13.1645L17.2434 11.4215L17.9097 2.4189C17.9784 1.48853 18.5383 0.665492 19.3783 0.259818C20.2184 -0.145855 21.2111 -0.0725335 21.9825 0.452165C22.7539 0.976862 23.1867 1.87322 23.118 2.80359C23.1168 2.81961 23.1155 2.83562 23.114 2.85161L21.9469 15.484L21.9413 15.5121C21.6294 16.5093 20.7004 17.1837 19.6557 17.1714L5.57401 16.9283C5.51939 17.0117 5.46043 17.0923 5.39737 17.1696C4.8464 17.8402 4.03549 18.244 3.16825 18.2795C2.30102 18.315 1.45983 17.9788 0.855902 17.3554C0.795276 17.2933 0.737842 17.2292 0.683598 17.163C-0.148881 16.1379 -0.228579 14.6939 0.486023 13.5834L0.486023 13.5834Z" transform="translate(102.8576 79.341125)" id="Path" fill="#FFB7B7" stroke="none" />
    <path d="M5.03907 13.1707L1.62439 13.1705L0 0L5.03956 0.000243281L5.03907 13.1707L5.03907 13.1707Z" transform="translate(122.44146 156.51244)" id="Path" fill="#FFB7B7" stroke="none" />
    <path d="M11.01 4.42501L0 4.4246L0 4.28533C0.000169276 1.91864 1.91873 0.000119564 4.28542 0L4.28568 0L11.0102 0.000267609L11.01 4.42501Z" transform="translate(117.34126 168.56802)" id="Path" fill="#2F2E41" stroke="none" />
    <path d="M9.02133 12.4655L5.78959 13.5675L0 1.62682L4.77 0L9.02133 12.4655L9.02133 12.4655Z" transform="translate(142.3192 154.12195)" id="Path" fill="#FFB7B7" stroke="none" />
    <path d="M10.6961 4.18786L0.275521 7.74201L0.23056 7.61021C-0.533364 5.3702 0.663077 2.935 2.903 2.17082L2.90324 2.17073L9.2678 0L10.6961 4.18786Z" transform="translate(142.53719 165.25104)" id="Path" fill="#2F2E41" stroke="none" />
    <path d="M11.1668 0.772935C11.1668 0.772935 7.76822 -0.34946 5.58341 4.14015C3.39861 8.62976 0 13.5683 0 13.5683L1.94206 14.0173C1.94206 14.0173 2.42757 10.8746 3.64137 10.4256L3.15587 14.4662C3.15587 14.4662 17.7213 19.1803 24.2758 14.0173L24.033 12.4459C24.033 12.4459 25.004 12.6704 25.004 14.0173L25.7323 13.3438C25.7323 13.3438 25.004 11.997 22.8192 10.2011C21.3852 9.02241 20.8924 6.77992 20.723 5.37788C20.5888 4.19087 20.0798 3.07753 19.2699 2.19939C17.8179 0.643364 15.1723 -1.01045 11.1668 0.772935Z" transform="translate(120.07367 53.752594)" id="Path" fill="#2F2E41" stroke="none" />
    <path d="M6.20736 12.4147C9.63558 12.4147 12.4147 9.63558 12.4147 6.20736C12.4147 2.77913 9.63558 0 6.20736 0C2.77913 0 0 2.77913 0 6.20736C0 9.63558 2.77913 12.4147 6.20736 12.4147Z" transform="translate(126.285904 57.796776)" id="Oval" fill="#FFB7B7" stroke="none" />
    <path d="M3.76203 0.376207L2.63343 0C2.63343 0 0.376204 0.940509 0.376204 2.63342C0.376204 4.32633 0 11.098 0 11.098L5.07875 11.6623L3.76203 0.376207Z" transform="translate(120.45474 74.94664)" id="Path" fill="#8870FF" fill-rule="evenodd" stroke="none" />
    <path d="M3.23838 32.8464C2.27097 31.7623 2.24243 30.1336 3.17126 29.0162L0.00295577 2.48235C-0.061654 1.1795 0.940766 0.0703198 2.24349 0.00319054C3.54621 -0.0639388 4.65733 0.936334 4.72698 2.23892C4.72744 2.24759 4.72784 2.25625 4.72818 2.26492L7.56256 28.8269C7.66533 28.9301 7.76005 29.041 7.84587 29.1586C8.30501 29.7936 8.49313 30.5849 8.36884 31.3585C8.24454 32.1321 7.81802 32.8247 7.1831 33.2838C7.15052 33.3074 7.11748 33.3302 7.08397 33.3525L7.08397 33.3525C6.34696 33.8402 5.43042 33.9727 4.58544 33.7137C4.06436 33.5558 3.59779 33.2554 3.23838 32.8464Z" transform="translate(141.17844 79.47564)" id="Path" fill="#FFB7B7" stroke="none" />
    <path d="M0 11.6623L5.07875 11.098C5.07875 11.098 4.70255 4.32634 4.70255 2.63342C4.70255 0.940501 2.44533 0 2.44533 0L1.31671 0.376199L0 11.6623Z" transform="translate(141.5151 74.38234)" id="Path" fill="#8870FF" fill-rule="evenodd" stroke="none" />
    <path d="M4.70255 0.00332757C4.70255 0.00332757 0.376207 7.91323 0.376207 17.5064C0.376207 27.0996 0 71.1154 0 71.1154C0 71.1154 5.64305 73.7488 9.02888 70.5511L12.0385 21.8327L23.8889 69.6105C23.8889 69.6105 29.5319 70.7392 32.1654 68.8581L27.0866 35.5642C27.0866 35.5642 25.0175 4.33929 19.3745 2.08207C13.7314 -0.175148 4.70255 0.00332757 4.70255 0.00332757Z" transform="translate(120.26664 95.436775)" id="Path" fill="#2F2E41" stroke="none" />
    <path d="M0.224052 7.39333C2.42151 5.803 4.20029 3.97126 5.37696 1.79234C5.37696 1.79234 9.40968 6.27314 11.8741 6.49717C14.3385 6.72121 12.0982 1.12022 12.0982 1.12022L7.61735 0L3.3606 0.448082L0 2.68848L0.224052 7.39333Z" transform="translate(125.56163 56.650166)" id="Path" fill="#2F2E41" stroke="none" />
    <path d="M15.6125 0.0104807C15.6125 0.0104807 15.7916 -0.0856784 5.07931 0.304536L0.595892 1.53928L0 1.70339C0 1.70339 0.564309 12.9895 2.06912 15.0586C3.57393 17.1277 3.19772 18.2563 2.82153 18.4444C2.44534 18.6325 1.50482 18.2563 2.06912 19.1968C2.63341 20.1374 3.38582 19.5731 2.63343 20.1374C1.88103 20.7017 1.50481 22.7708 1.50481 22.7708L18.0578 25.028C18.0578 25.028 18.6221 17.692 20.1269 13.93C21.6317 10.168 22.0079 8.66315 22.0079 8.66315L20.8793 1.13909L15.6125 0.0104807Z" transform="translate(123.088135 73.24325)" id="Path" fill="#8870FF" fill-rule="evenodd" stroke="none" />
    <path d="M86.3831 41.1688L85.4313 41.1688L85.4313 15.0924C85.4313 6.75709 78.6742 1.3436e-05 70.3389 0L15.0924 0C6.75712 -2.28413e-05 2.55284e-05 6.75703 0 15.0923L0 158.15C-8.06162e-06 166.485 6.75705 173.242 15.0923 173.242L70.3389 173.242C74.3416 173.242 78.1804 171.652 81.0108 168.822C83.8411 165.991 85.4312 162.153 85.4313 158.15L85.4313 158.15L85.4313 59.7305L86.3831 59.7305L86.3831 41.1688Z" transform="translate(20.846899 4.8656134E-06)" id="Path" fill="#3F3D56" stroke="none" />
    <path d="M78.0542 11.2712L78.0542 154.118C78.0568 157.105 76.873 159.97 74.763 162.084C72.653 164.198 69.7897 165.387 66.8031 165.39L11.2712 165.39C5.05068 165.394 0.00439215 160.355 2.80514e-06 154.134L2.80514e-06 11.2712C-0.00210394 8.284 1.18254 5.41831 3.29332 3.30455C5.4041 1.19079 8.26811 0.00211053 11.2553 4.62667e-06L18.0052 4.62667e-06C17.3317 1.65108 17.5245 3.52908 18.5192 5.00897C19.5139 6.48887 21.1801 7.37644 22.9633 7.37627L54.6141 7.37627C56.3972 7.37644 58.0634 6.48887 59.0582 5.00897C60.0529 3.52908 60.2456 1.65108 59.5721 4.62667e-06L66.783 4.62667e-06C73.0023 -0.00557248 78.0486 5.03166 78.0542 11.251L78.0542 11.2712L78.0542 11.2712Z" transform="translate(25.011902 3.9271877)" id="Path" fill="#FFFFFF" stroke="none" />
    <path d="M78.0541 32.405L78.0541 27.5394L70.69 27.5394L70.69 0.695826C69.4393 0.233908 68.1163 -0.00170168 66.7829 1.86042e-05L65.8244 1.86042e-05L65.8244 27.5394L40.2799 27.5394L40.2799 7.37631L35.4143 7.37631L35.4143 27.5394L14.0056 27.5394L14.0056 4.29323e-05L11.2712 4.29323e-05C10.556 -0.0010732 9.8423 0.0665452 9.14001 0.201966L9.14001 27.5394L2.43281e-06 27.5394L2.43281e-06 32.405L9.14002 32.405L9.14002 43.6593L0.000119208 48.936L0.000119208 54.5558L9.14001 49.2791L9.14001 82.7641L-3.45723e-15 82.7641L-3.45723e-15 87.6297L9.14001 87.6297L9.14001 136.043L-3.45723e-15 136.043L-3.45723e-15 140.908L9.14001 140.908L9.14001 165.188C9.84231 165.323 10.556 165.391 11.2712 165.39L14.0056 165.39L14.0056 140.908L35.4143 140.908L35.4143 165.39L40.2799 165.39L40.2799 140.908L65.8244 140.908L65.8244 165.39L66.7829 165.39C68.1163 165.391 69.4393 165.156 70.69 164.694L70.69 140.908L78.0541 140.908L78.0541 136.043L70.69 136.043L70.69 114.877L77.9884 114.877L77.9884 110.012L70.69 110.012L70.69 87.6297L78.0541 87.6297L78.0541 82.7641L70.69 82.7641L70.69 53.0839L78.0541 53.0839L78.0541 48.2183L70.69 48.2183L70.69 32.405L78.0541 32.405ZM28.6343 32.405L28.6342 32.4051L14.0057 40.8518L14.0056 40.8519L14.0056 32.405L28.6343 32.405ZM14.0056 46.4692L14.0057 46.4692L35.4143 34.1081L35.4143 82.7641L14.0056 82.7641L14.0056 46.4692ZM14.0056 136.043L14.0056 87.6297L35.4143 87.6297L35.4143 136.043L14.0056 136.043ZM65.8244 136.043L40.2799 136.043L40.2799 114.877L65.8244 114.877L65.8244 136.043ZM65.8244 110.012L40.2799 110.012L40.2799 87.6297L65.8244 87.6297L65.8244 110.012ZM65.8244 82.7641L40.2799 82.7641L40.2799 53.0839L65.8244 53.0839L65.8244 82.7641ZM65.8244 48.2183L40.2799 48.2183L40.2799 32.405L65.8244 32.405L65.8244 48.2183Z" transform="translate(25.011915 3.927159)" id="Shape" fill="#ECE8FF" fill-rule="evenodd" stroke="none" />
    <path d="M55.9546 27.9773C55.9546 43.4287 27.9773 77.8498 27.9773 77.8498C27.9773 77.8498 0 43.4287 0 27.9773C0 12.5259 12.5259 3.45723e-15 27.9773 0C43.4287 -3.45723e-15 55.9546 12.5259 55.9546 27.9773Z" transform="translate(51.1816 24.258156)" id="Path" fill="#8870FF" fill-rule="evenodd" stroke="none" />
    <path d="M33.0862 16.5431C33.0862 25.6796 25.6796 33.0862 16.5431 33.0862C7.40659 33.0862 0 25.6796 0 16.5431C0 7.40659 7.40659 1.75103e-06 16.5431 1.75103e-06L16.5431 1.75103e-06C20.9286 -0.00201503 25.1352 1.73818 28.2377 4.83776C31.3401 7.93734 33.0842 12.1424 33.0862 16.5279L33.0862 16.5431Z" transform="translate(62.616116 34.47594)" id="Path" fill="#FFFFFF" stroke="none" />
    <path d="M6.16311 12.3262C9.56691 12.3262 12.3262 9.56691 12.3262 6.16311C12.3262 2.75932 9.56691 0 6.16311 0C2.75932 0 0 2.75932 0 6.16311C0 9.56691 2.75932 12.3262 6.16311 12.3262Z" transform="translate(72.93852 45.223217)" id="Oval" fill="#8277FF" stroke="none" />
    <path d="M17.7765 6.70427C12.3526 10.1533 5.42293 10.1523 0 6.70184C1.13503 2.73421 4.76237 -0.000564685 8.88916 8.74593e-08C13.0159 0.00056486 16.6425 2.73633 17.7765 6.70427L17.7765 6.70427Z" transform="translate(70.269714 58.758324)" id="Path" fill="#8277FF" stroke="none" />
    <path d="M7.5417 15.0834C11.7069 15.0834 15.0834 11.7069 15.0834 7.5417C15.0834 3.37653 11.7069 0 7.5417 0C3.37653 0 0 3.37653 0 7.5417C0 11.7069 3.37653 15.0834 7.5417 15.0834Z" transform="translate(71.61718 107.21686)" id="Oval" fill="#8870FF" fill-rule="evenodd" stroke="none" />
    <path d="M195.841 0.486561L0.243281 0.486561C0.10892 0.486561 1.64544e-17 0.377641 0 0.243281C-1.64544e-17 0.10892 0.10892 0 0.243281 0L195.841 0C195.975 0 196.084 0.10892 196.084 0.243281C196.084 0.377641 195.975 0.486561 195.841 0.486561Z" transform="translate(0 172.90265)" id="Path" fill="#CBCBCB" stroke="none" />
  </g>
</svg>