<?xml version="1.0" encoding="utf-8"?>
<svg width="73px" height="97px" viewBox="0 0 73 97" version="1.1" xmlns:xlink="http://www.w3.org/1999/xlink" xmlns="http://www.w3.org/2000/svg">
  <defs>
    <filter id="filter_1">
      <feColorMatrix in="SourceGraphic" type="matrix" values="0 0 0 0 0.53333336 0 0 0 0 0.4392157 0 0 0 0 1 0 0 0 1 0" />
    </filter>
  </defs>
  <g id="noun_features_1140324" opacity="1" filter="url(#filter_1)">
    <g id="Group">
      <path d="M60.15 0L0 0L0 100.235L79.5 100.235L79.5 19.5879L60.15 0ZM60.75 3.82576L75.6 18.9758L66.75 18.9758C63.45 18.9758 60.6 16.2212 60.6 12.8545L60.6 3.82576L60.75 3.82576ZM58.5 2.29545L58.5 12.8545C58.5 17.4455 62.25 21.2712 66.9 21.2712L77.25 21.2712L77.25 96.8682L64.35 79.8818L56.1 90.5939L47.85 79.8818L39.6 90.5939L31.35 79.8818L23.1 90.5939L14.85 79.8818L2.25 96.7152L2.25 2.29545L58.5 2.29545ZM26.1 97.9394L4.2 97.9394L15.15 83.5545L26.1 97.9394ZM24.75 92.4303L31.5 83.5545L42.45 97.9394L28.95 97.9394L24.75 92.4303ZM41.25 92.4303L48 83.5545L54.75 92.4303L50.55 97.9394L45.45 97.9394L41.25 92.4303ZM57.6 92.4303L64.35 83.5545L75.3 97.9394L53.4 97.9394L57.6 92.4303L57.6 92.4303Z" transform="translate(0.75 0.45909092)" id="Shape" fill="#000100" stroke="none" />
      <path d="M15.75 31.9833C24.45 31.9833 31.5 24.7909 31.5 15.9152C31.5 7.03939 24.45 0 15.75 0C7.05 0 0 7.19242 0 16.0682C0 24.9439 6.9 31.9833 15.75 31.9833ZM8.7 4.28485C10.35 3.21364 12.45 2.60152 14.55 2.44848L14.55 12.5485L8.7 4.28485ZM29.1 14.8439L19.2 14.8439L27.3 9.02879C28.35 10.7121 28.95 12.7015 29.1 14.8439ZM25.95 7.19242L16.8 13.7727L16.8 2.29545C20.55 2.60152 23.7 4.43788 25.95 7.19242ZM6.9 5.50909L14.7 16.6803C14.85 16.9864 15.3 17.1394 15.6 17.1394L29.1 17.1394C28.5 24.1788 22.65 29.6879 15.6 29.6879C8.1 29.6879 2.1 23.5667 2.1 15.9152C2.1 11.7833 4.05 8.11061 6.9 5.50909Z" transform="translate(10.5 12.548485)" id="Shape" fill="#000100" stroke="none" />
      <path d="M6.75 0L0 0L0 6.88636L6.75 6.88636L6.75 0ZM4.5 4.59091L2.25 4.59091L2.25 2.29545L4.5 2.29545L4.5 4.59091Z" transform="translate(50.55 26.780304)" id="Shape" fill="#000100" stroke="none" />
      <path d="M0 0L13.5 0L13.5 2.29545L0 2.29545L0 0Z" transform="translate(59.7 31.371212)" id="Rectangle" fill="#000100" stroke="none" />
      <path d="M6.75 0L0 0L0 6.88636L6.75 6.88636L6.75 0ZM4.5 4.59091L2.25 4.59091L2.25 2.29545L4.5 2.29545L4.5 4.59091Z" transform="translate(50.55 37.645454)" id="Shape" fill="#000100" stroke="none" />
      <path d="M0 0L13.5 0L13.5 2.29545L0 2.29545L0 0Z" transform="translate(59.7 42.236362)" id="Rectangle" fill="#000100" stroke="none" />
      <path d="M0 0L61.65 0L61.65 2.29545L0 2.29545L0 0Z" transform="translate(11.55 52.948486)" id="Rectangle" fill="#000100" stroke="none" />
      <path d="M0 0L61.65 0L61.65 2.29545L0 2.29545L0 0Z" transform="translate(11.55 63.660606)" id="Rectangle" fill="#000100" stroke="none" />
      <path d="M0 0L61.65 0L61.65 2.29545L0 2.29545L0 0Z" transform="translate(11.55 74.219696)" id="Rectangle" fill="#000100" stroke="none" />
    </g>
  </g>
</svg>