<?xml version="1.0" encoding="utf-8"?>
<!-- Generator: Adobe Illustrator 25.4.1, SVG Export Plug-In . SVG Version: 6.00 Build 0)  -->
<svg version="1.1" id="Calque_1" xmlns="http://www.w3.org/2000/svg" xmlns:xlink="http://www.w3.org/1999/xlink" x="0px" y="0px"
	 viewBox="0 0 103.21 93.72" style="enable-background:new 0 0 103.21 93.72;" xml:space="preserve">
<style type="text/css">
	.st0{fill:#000100;}
</style>
<g id="Technical">
	<path id="Shape" class="st0" d="M103.21,14.95H68.7v-3.7l1.1-5.13L68.55,0h-6.93l-1.26,6.12l1.1,5.13v3.7h-8.98
		c1.1-1.71,1.73-3.56,1.73-5.55c0-3.85-2.36-7.26-6.15-9.12c-0.79-0.43-1.73,0.14-1.73,1l0.16,7.41l-3.94,1.57l-3.94-1.42
		l-0.16-7.41c0-0.85-0.95-1.28-1.73-0.85c-3.78,1.85-5.99,5.41-5.99,9.26c0,1.99,0.63,3.85,1.73,5.41H0v69.22h42.86l-7.56,7.41
		c-0.63,0.71-0.16,1.85,0.79,1.85h31.04c1.1,0,1.58-1.14,0.79-1.85l-7.56-7.41h42.86V14.95z M48.06,64.95
		c3.78-1.85,6.15-5.27,6.15-9.12c0-3.56-2.05-6.98-5.36-8.97V22.65h12.61v14.53h-0.95c-0.63,0-1.26,0.43-1.26,1.14v3.56h-0.16l0,0
		c-0.63,0-1.26,0.43-1.26,1.14v14.67c0,3.56,3.15,6.41,7.25,6.41c3.94,0,7.25-2.85,7.25-6.41V43.01c0-0.57-0.47-1-1.1-1.14h-0.16
		v-3.56c0-0.57-0.47-1.14-1.26-1.14h-0.95V22.65h25.68v47.71H8.67V22.79H36.4v24.07c-3.47,1.85-5.52,5.13-5.52,8.83
		c0,3.85,2.21,7.41,5.99,9.26c0.79,0.43,1.73-0.14,1.73-0.85l0.16-7.41l3.94-1.42l3.94,1.57l-0.16,7.41
		C46.17,64.8,47.27,65.37,48.06,64.95z M63.82,37.32V12.25h2.68v25.07C64.76,37.32,65.39,37.32,63.82,37.32z M69.96,44.15v13.67
		c0,2.42-2.21,4.27-4.88,4.27c-2.68,0-4.88-1.99-4.88-4.27V44.15C70.12,44.15,69.96,44.15,69.96,44.15z M61.61,42.02v-2.56
		c2.52,0,4.41,0,6.93,0v2.56H61.61z M63.5,2.28h2.99l0.79,3.99l-0.79,3.99H63.5l-0.79-3.99L63.5,2.28z M61.45,20.65H48.85v-2.42
		c0.63-0.28,1.1-0.71,1.58-1.14H61.3L61.45,20.65z M36.08,3.28v5.98c0,0.43,0.32,0.85,0.79,1l5.2,1.99c0.32,0.14,0.63,0.14,0.95,0
		l5.04-1.99c0.47-0.14,0.63-0.57,0.63-1l-0.16-5.98c1.89,1.57,3.15,3.85,3.15,6.12c0,2.99-1.73,5.84-4.73,7.41
		c-0.32,0.14-0.63,0.57-0.63,1v29.91c0,0.43,0.16,0.71,0.63,1c2.99,1.57,4.73,4.27,4.73,7.41c0,2.42-1.26,4.56-3.15,6.12l0.16-5.98
		c0-0.43-0.32-0.85-0.63-1l-5.04-1.99c-0.32-0.14-0.63-0.14-0.95,0l-5.04,1.99c-0.47,0.14-0.79,0.57-0.79,1v5.98
		c-1.89-1.57-2.99-3.85-2.99-6.27c0-2.99,1.89-5.84,4.88-7.26c0.32-0.14,0.63-0.57,0.63-1V17.8c0-0.43-0.32-0.71-0.63-1
		c-2.99-1.42-4.88-4.27-4.88-7.26C33.09,7.12,34.19,4.84,36.08,3.28z M64.29,91.29H38.76l7.25-6.98h11.03L64.29,91.29z
		 M100.85,82.04c-9.93,0-95.33,0-98.48,0V17.09h32.15c0.63,0.43,1.1,0.85,1.89,1.28v2.28H6.3v51.98h90.61V20.65H68.7v-3.56h31.99
		v64.95H100.85z"/>
	<path id="Shape_00000070086214900424246350000004706047490510713999_" class="st0" d="M51.53,73.63c-2.36,0-4.25,1.71-4.25,3.85
		c0,2.14,1.89,3.85,4.25,3.85c2.36,0,4.25-1.71,4.25-3.85C55.78,75.34,53.89,73.63,51.53,73.63z M51.53,79.05
		c-0.95,0-1.89-0.71-1.89-1.71s0.79-1.71,1.89-1.71s1.89,0.71,1.89,1.71S52.47,79.05,51.53,79.05z"/>
	<path id="Rectangle" class="st0" d="M63.82,46.43h2.36v12.68h-2.36V46.43z"/>
</g>
</svg>
